<svg width="1360" height="578" viewBox="0 0 1360 578" fill="none" xmlns="http://www.w3.org/2000/svg">
<path d="M463.168 189.753C463.398 204.947 450.478 218.391 433.038 218.438C415.518 218.495 402.338 205.619 402.438 189.536C402.538 173.14 415.998 160.832 432.958 160.832C450.168 160.832 463.538 174.209 463.168 189.744V189.753ZM440.298 189.725C440.318 185.761 437.088 182.393 432.958 182.478C428.548 182.563 425.408 185.222 425.288 189.612C425.178 193.604 428.608 196.754 432.768 196.688C437.188 196.622 440.278 193.822 440.298 189.725Z" fill="#EAD6C5" fill-opacity="0.35"/>
<path d="M1004.94 44.585C1010.76 33.5364 1016.6 22.4756 1022.42 11.427C1024.09 8.27029 1025.74 7.72848 1029.09 9.30913C1034.47 11.8468 1039.87 14.366 1045.24 16.9283C1054.29 21.275 1058.93 32.9522 1055.5 41.9915C1053.03 48.5398 1048.26 52.7556 1041.51 55.0831C1039.21 55.8774 1040.46 56.6182 1041.29 57.4142C1045.66 61.6165 1048.6 66.5149 1049.76 72.3559C1051.68 82.0581 1046.18 90.9174 1036.58 94.4275C1028.18 97.5004 1019.8 97.0579 1011.41 94.0684C1003.82 91.363 996.852 87.443 989.552 84.1518C986.503 82.7749 985.858 80.7147 987.334 77.9155C993.198 66.793 999.056 55.6828 1004.92 44.5603L1004.94 44.585Z" fill="#EAD6C5" fill-opacity="0.35"/>
<path d="M438.438 451.135C438.438 436.889 438.438 422.628 438.438 408.382C438.438 404.514 438.931 404.016 443.121 404.063C452.209 404.172 461.313 403.628 470.401 404.374C481.132 405.244 490.68 408.786 497.664 416.864C506.456 427.024 505.043 440.214 494.542 448.867C486.67 455.345 477.385 458.126 467.114 458.39C463.663 458.483 463.647 458.437 463.63 461.652C463.63 472.543 463.63 483.433 463.597 494.323C463.597 498.114 463.088 498.58 459.127 498.58C453.754 498.58 448.38 498.58 443.006 498.58C439.062 498.58 438.438 498.021 438.438 494.354C438.438 479.937 438.438 465.521 438.438 451.104V451.135Z" fill="#F4B866" fill-opacity="0.35"/>
<path d="M141.689 7.01357C146.568 4.93358 151.439 2.85667 156.318 0.776677C157.944 0.083346 158.233 0.197978 158.981 1.76697C160.095 4.10683 161.206 6.43986 162.321 8.77971C162.883 9.95987 162.676 10.4748 161.442 11.042C160.693 11.386 159.914 11.6854 159.162 12.0226C158.004 12.5491 157.793 13.074 158.315 14.2057C159.327 16.3675 160.368 18.517 161.398 20.6795C164.791 27.8014 168.18 34.9165 171.572 42.0383C172.385 43.7438 172.308 43.9487 170.494 44.7221C164.437 47.3044 158.381 49.8867 152.324 52.4689C150.698 53.1623 150.415 53.0613 149.657 51.4885C145.266 42.2891 140.88 33.0798 136.489 23.8804C135.725 22.2772 135.404 22.1681 133.713 22.8725C133.142 23.1159 132.571 23.3593 132 23.6028C130.527 24.2147 129.981 24.0369 129.334 22.6961C128.205 20.3624 127.093 18.0294 125.993 15.6834C125.34 14.3122 125.51 13.9198 126.955 13.3035C131.87 11.2081 136.785 9.11269 141.699 7.0173L141.689 7.01357Z" fill="#F4B866" fill-opacity="0.35"/>
<path d="M936.012 364.058C936.012 369.394 935.952 374.73 936.022 380.066C936.112 387.199 933.032 392.989 927.262 397.294C922.512 400.841 916.942 402.355 910.732 401.636C902.362 400.671 896.632 396.319 892.812 389.507C891.182 386.593 890.512 383.33 890.462 380.009C890.412 376.565 890.452 373.121 890.462 369.687C890.462 367.208 891.782 365.96 894.462 365.96C899.312 365.95 904.162 365.96 909.012 365.96C912.022 365.96 913.242 364.824 913.242 361.996C913.242 357.303 913.242 352.62 913.242 347.928C913.242 345.742 914.652 344.399 916.962 344.399C922.762 344.399 928.562 344.437 934.362 344.37C935.662 344.361 936.072 344.683 936.062 345.95C935.992 351.986 936.032 358.022 936.032 364.058H936.012Z" fill="#EAD6C5" fill-opacity="0.35"/>
<path d="M1336.66 119.205C1343.36 119.205 1350.05 119.205 1356.75 119.205C1358.75 119.205 1359.11 119.669 1358.44 121.466C1355.47 129.404 1352.5 137.351 1349.48 145.269C1348.96 146.641 1348.86 147.843 1349.4 149.281C1352.44 157.407 1355.36 165.581 1358.31 173.737C1358.4 173.973 1358.48 174.21 1358.55 174.446C1359.03 176.036 1358.63 176.556 1356.85 176.565C1349.31 176.575 1341.77 176.565 1334.23 176.565C1328.43 176.565 1322.63 176.565 1316.83 176.565C1314.36 176.565 1314.02 176.111 1314.82 173.879C1317.83 165.581 1320.84 157.284 1323.89 149.006C1324.31 147.862 1324.35 146.84 1323.91 145.686C1320.9 137.814 1317.95 129.915 1314.98 122.034C1314.89 121.797 1314.8 121.57 1314.72 121.334C1314.14 119.669 1314.45 119.224 1316.26 119.215C1318.74 119.196 1321.22 119.215 1323.69 119.215C1328.01 119.215 1332.34 119.215 1336.66 119.215V119.205Z" fill="#F4B866" fill-opacity="0.35"/>
<path d="M10.9383 550.111C7.57243 541.879 4.20294 533.637 0.837063 525.405C0.101115 523.605 0.244094 523.299 2.12807 522.61C6.80069 520.9 11.4733 519.19 16.1459 517.48C17.8061 516.872 18.5283 517.196 19.187 518.781C20.9006 522.972 22.6106 527.155 24.3242 531.346C24.9194 532.802 25.725 533.146 27.2798 532.648C27.7813 532.485 28.2792 532.313 28.7534 532.109C30.1665 531.5 30.4988 530.74 29.9454 529.36C28.2411 525.165 26.5218 520.986 24.8082 516.795C24.1227 515.119 24.4373 514.446 26.2 513.8C30.826 512.108 35.439 510.409 40.0686 508.725C41.8034 508.09 42.4242 508.35 43.0952 509.991C49.8486 526.509 56.6021 543.027 63.3591 559.554C63.9651 561.036 63.7309 561.67 62.1713 562.261C57.4105 564.043 52.6446 565.787 47.855 567.5C46.4244 568.013 45.5813 567.551 44.9515 566.036C43.3527 562.178 41.7948 558.316 40.2147 554.451C39.0711 551.654 38.8476 551.553 35.9506 552.623C35.7548 552.695 35.5589 552.767 35.3631 552.838C34.02 553.33 33.6678 554.199 34.1837 555.461C35.885 559.596 37.5806 563.743 39.2632 567.885C40.028 569.755 39.6828 570.51 37.7278 571.236C33.251 572.874 28.7742 574.513 24.2975 576.151C22.2923 576.885 21.7936 576.661 20.9833 574.706C17.6355 566.518 14.2877 558.329 10.9362 550.132L10.9383 550.111Z" fill="#EAD6C5" fill-opacity="0.35"/>
<path d="M1351.69 499.16C1349.9 499.16 1348.11 499.16 1346.31 499.16C1344.39 499.16 1344.16 498.933 1344.13 497.079C1344.11 495.937 1343.56 495.619 1342.46 496.123C1323.24 504.96 1301.01 493.465 1298.62 473.465C1296.79 458.063 1308.73 443.872 1325.07 442.027C1341.58 440.163 1356.46 450.807 1358.84 466.19C1359.76 472.178 1358.75 477.893 1355.92 483.323C1355.14 484.818 1355.16 484.837 1356.91 484.865C1359.12 484.894 1359.24 485.007 1359.24 487.079C1359.24 490.523 1359.21 493.957 1359.26 497.401C1359.28 498.687 1358.72 499.208 1357.37 499.17C1355.47 499.122 1353.58 499.16 1351.68 499.16H1351.69ZM1321.23 470.485C1321.25 474.534 1324.57 477.666 1328.85 477.666C1333.01 477.666 1336.5 474.354 1336.48 470.428C1336.46 466.492 1332.97 463.238 1328.79 463.238C1324.57 463.238 1321.21 466.464 1321.22 470.485H1321.23Z" fill="#F4B866" fill-opacity="0.35"/>
</svg>
