<svg width="274" height="236" viewBox="0 0 274 236" fill="none" xmlns="http://www.w3.org/2000/svg">
<g opacity="0.6">
<g clip-path="url(#clip0_62_233)">
<path d="M171.595 123.334C174.85 123.889 178.062 124.443 181.288 124.993C192.172 126.857 203.044 128.725 213.928 130.59C228.855 133.151 243.782 135.712 258.709 138.272C259.149 138.347 259.677 138.321 259.766 138.949C259.85 139.563 259.439 139.783 258.975 140.038C246.121 146.986 233.266 153.955 220.415 160.915C210.315 166.383 200.207 171.847 190.11 177.328C182.245 181.593 174.405 185.872 166.548 190.142C166.243 190.304 165.915 190.431 165.618 190.618C164.893 191.091 164.235 190.948 163.509 190.542C129.198 171.346 94.8692 152.162 60.5399 132.999C59.6343 132.493 59.3054 131.913 59.2517 130.898C57.7628 103.505 56.2403 76.115 54.7306 48.7213C54.2988 41.0075 53.8752 33.2982 53.448 25.5762C53.4377 25.3456 53.3575 25.0867 53.4379 24.8854C53.5668 24.5399 53.7167 24.0991 53.9912 23.9528C54.1803 23.8443 54.7007 24.0816 54.9035 24.3127C56.8179 26.4424 58.6933 28.6039 60.5777 30.7489C74.1871 46.2231 87.801 61.6891 101.419 77.1679C105.255 81.5281 109.092 85.8884 112.937 90.2532C113.088 90.4233 113.235 90.6016 113.438 90.8326C114.078 90.473 114.704 90.1378 115.315 89.7726C126.452 83.1389 137.58 76.5007 148.709 69.8624C155.442 65.8419 162.166 61.8168 168.914 57.8262C169.297 57.6011 169.934 57.3794 170.215 57.5472C170.517 57.7158 170.642 58.3742 170.646 58.8263C170.955 79.9393 171.247 101.064 171.544 122.181C171.547 122.557 171.568 122.922 171.586 123.35L171.595 123.334ZM84.6833 61.2529C84.69 61.1067 84.7586 60.8882 84.6871 60.8054C84.3286 60.4124 83.9265 60.0592 83.5462 59.686C82.9051 59.0708 82.264 58.4556 81.6229 57.8404C80.9933 56.2467 79.928 55.0304 78.4661 54.1599L78.4768 54.1981C78.2292 53.7599 78.0598 53.2585 77.7422 52.8882C73.605 48.146 69.4459 43.4237 65.2869 38.7013C65.1158 38.5094 64.9092 38.3618 64.7118 38.1979C64.659 38.2541 64.598 38.3057 64.5452 38.3618C65.3157 39.5311 66.0688 40.7121 66.8438 41.8731C70.451 47.3148 74.0627 52.7483 77.6826 58.1863C81.1578 63.4044 84.6503 68.6106 88.1382 73.8251C90.1186 76.7946 92.099 79.7641 94.0794 82.7336C95.5471 84.9349 97.0184 87.1488 98.4988 89.3464C99.9158 91.4658 101.385 93.55 102.729 95.7037C103.243 96.5265 103.676 96.5003 104.386 96.0728C106.529 94.7656 108.693 93.4803 110.868 92.2122C111.552 91.8127 111.579 91.3998 111.082 90.8331C109.324 88.8444 107.576 86.8394 105.823 84.8426C105.203 84.1322 104.711 83.2686 103.71 83.0092L103.73 83.0311C103.624 82.704 103.604 82.3182 103.402 82.0663C102.427 80.9001 101.398 79.7902 100.401 78.644C99.4551 77.5587 98.5266 76.4617 97.5716 75.3927C97.3725 75.1744 97.0596 75.0638 96.7995 74.897C96.6903 74.6326 96.6467 74.3084 96.4639 74.0992C93.0253 70.1756 89.5741 66.2557 86.1092 62.3602C85.7155 61.9154 85.1862 61.5982 84.7142 61.2166L84.7296 61.2466L84.6833 61.2529ZM225.063 134.457C226.136 134.682 227.21 134.887 228.269 135.157C228.537 135.232 228.744 135.551 228.969 135.762C228.685 135.925 228.378 136.246 228.103 136.22C227.065 136.123 226.05 135.909 225.02 135.74C219.867 134.905 214.709 134.077 209.559 133.234C206.736 132.769 203.918 132.276 201.094 131.811C194.372 130.699 187.657 129.612 180.934 128.499C179.111 128.198 177.296 127.826 175.484 127.466C175.231 127.421 175.001 127.239 174.764 127.128C174.798 127.008 174.841 126.893 174.876 126.773C182.237 127.911 189.611 129.045 196.972 130.203C204.324 131.357 211.688 132.529 219.036 133.691C219.069 133.592 219.099 133.501 219.133 133.402C218.746 133.251 218.358 133.044 217.956 132.959C217.422 132.842 216.865 132.863 216.321 132.763C214.633 132.451 212.943 132.084 211.253 131.793C209.29 131.456 207.319 131.19 205.351 130.861C202.071 130.312 198.801 129.727 195.526 129.17C193.031 128.75 190.525 128.367 188.035 127.939C184.187 127.277 180.336 126.581 176.498 125.902C175.385 125.709 174.273 125.515 173.164 125.335C172.034 125.153 171.763 125.408 171.811 126.548C171.839 127.227 171.849 127.918 171.855 128.596C171.863 130.421 171.863 132.241 171.884 134.062C171.891 134.643 172.074 135.024 172.818 134.958C173.561 134.892 174.322 135.006 175.065 135.036C180.849 135.26 186.629 135.493 192.405 135.712C196.494 135.867 200.592 136.005 204.677 136.147C207.96 136.269 211.246 136.403 214.535 136.496C217.041 136.569 219.548 136.568 222.058 136.654C224.126 136.728 226.189 136.886 228.248 136.976C232.386 137.158 236.52 137.327 240.65 137.484C241.172 137.508 241.692 137.477 242.22 137.472C242.227 137.401 242.226 137.326 242.234 137.255C241.965 137.18 241.706 137.089 241.432 137.043C239.793 136.758 238.14 136.477 236.501 136.193C233.196 135.631 229.888 135.056 226.583 134.515C226.093 134.434 225.58 134.49 225.07 134.483C224.228 134.227 223.382 133.978 222.54 133.722C222.508 133.875 222.476 134.029 222.448 134.174C223.319 134.264 224.193 134.346 225.064 134.436L225.063 134.457ZM194.755 170.128C194.814 170.021 194.862 169.898 194.913 169.788C195.71 170.104 196.512 170.392 197.296 170.734C198.231 171.149 199.035 170.935 199.714 170.008C197.96 168.932 196.1 167.989 194.674 166.421C196.399 167.128 198.047 167.953 199.681 168.823C201.195 169.637 201.637 169.595 203.065 168.284C200.623 167.08 198.24 165.845 196.269 163.951C196.894 164.097 197.473 164.324 198.03 164.592C199.74 165.441 201.494 166.229 203.14 167.191C204.383 167.918 205.238 167.346 206.251 166.682C203.459 164.896 200.528 163.494 198.035 161.384C198.438 161.373 198.798 161.456 199.112 161.621C201.547 162.897 203.981 164.193 206.402 165.492C207.599 166.129 208.253 166.012 209.199 164.914C206.056 162.836 202.607 161.23 199.655 158.831C200.065 158.825 200.412 158.933 200.722 159.106C203.784 160.753 206.841 162.408 209.908 164.047C210.161 164.188 210.554 164.365 210.76 164.266C211.61 163.874 212.419 163.384 213.239 162.932C213.265 162.829 213.282 162.721 213.313 162.609L202.299 156.455C202.363 156.34 202.427 156.226 202.483 156.107C202.971 156.327 203.463 156.537 203.937 156.781C207.24 158.477 210.525 160.184 213.827 161.88C214.077 162.009 214.431 162.217 214.624 162.122C215.65 161.646 216.641 161.097 217.64 160.574C217.641 160.457 217.651 160.345 217.647 160.236L207.776 154.719C207.822 154.638 207.863 154.564 207.909 154.483C208.053 154.531 208.211 154.555 208.354 154.625C211.492 156.175 214.642 157.721 217.771 159.287C218.964 159.89 220.097 159.645 220.955 158.551C218.2 156.872 215.453 155.198 212.705 153.523C212.756 153.434 212.806 153.344 212.856 153.254C213.065 153.339 213.289 153.4 213.489 153.501C216.219 154.898 218.953 156.309 221.689 157.698C221.946 157.831 222.32 157.986 222.546 157.888C223.151 157.648 223.699 157.28 224.468 156.843L217.73 153.077C218.004 152.93 218.196 152.952 218.368 153.027C220.266 153.884 222.168 154.733 224.056 155.627C225.579 156.35 226.197 156.278 227.538 155.047C226.21 154.166 224.899 153.294 223.588 152.422C223.647 152.316 223.702 152.218 223.761 152.112C224.022 152.182 224.292 152.216 224.538 152.331C225.635 152.859 226.732 153.386 227.81 153.946C229.008 154.562 229.391 154.508 230.443 153.469C229.478 152.801 228.513 152.134 227.43 151.389C227.723 151.306 227.792 151.259 227.824 151.278C228.756 151.68 229.679 152.078 230.605 152.489C231.794 153.025 232.309 152.927 233.271 151.934C232.604 151.518 231.949 151.099 231.291 150.688C231.337 150.586 231.384 150.483 231.43 150.381C232.057 150.581 232.742 150.696 233.309 151.003C234.599 151.702 235.462 150.964 236.428 150.326C235.867 149.874 235.371 149.478 234.871 149.071C234.901 148.959 234.936 148.839 234.974 148.732C236.584 149.664 238.15 150.175 239.663 148.408L236.212 146.48C236.248 146.414 236.285 146.349 236.326 146.276C236.525 146.302 236.731 146.299 236.907 146.365C237.829 146.709 238.755 147.044 239.661 147.433C240.999 148.009 241.902 147.829 243.024 146.647C241.469 145.692 239.923 144.743 238.373 143.78C238.437 143.666 238.501 143.552 238.573 143.442C240.104 144.169 241.636 144.897 243.166 145.645C244.377 146.236 244.579 146.22 245.872 145.112L240.447 142.081C240.507 141.975 240.561 141.877 240.621 141.771C240.904 141.876 241.206 141.948 241.477 142.078C242.978 142.82 244.478 143.584 245.992 144.323C246.974 144.807 247.724 144.595 248.406 143.702C246.909 142.759 245.405 141.811 243.901 140.863C243.951 140.773 244.005 140.675 244.056 140.586C244.377 140.701 244.711 140.792 245.014 140.939C246.335 141.603 247.66 142.258 248.958 142.962C249.684 143.367 250.162 143.088 250.634 142.549C249.56 141.789 248.531 141.064 247.51 140.343C247.583 140.212 247.668 140.099 247.741 139.969C248.793 140.557 249.855 141.108 250.885 141.737C251.609 142.184 252.147 142.046 252.68 141.455C252.186 141.094 251.729 140.763 251.268 140.42C251.3 140.362 251.331 140.305 251.363 140.248C252.141 140.522 252.932 140.793 253.71 141.067C253.742 141.01 253.779 140.945 253.803 140.883C253.678 140.685 253.553 140.487 253.312 140.095C254.228 140.468 254.971 140.669 255.625 139.825C200.776 137.821 145.994 135.812 91.0611 133.804C91.7008 134.269 92.1864 134.626 92.6802 134.987C92.6464 135.086 92.5999 135.189 92.566 135.288C90.2444 134.097 87.8601 133.268 85.1337 133.875L89.8163 136.492C89.7707 136.573 89.7297 136.647 89.6841 136.728C89.4446 136.659 89.1869 136.622 88.9657 136.519C87.2331 135.712 85.4641 134.969 83.7862 134.064C81.9941 133.094 80.0995 133.534 78.2344 133.424C81.1761 135.324 84.2828 136.911 87.0687 139.014C86.7908 139.051 86.5759 138.995 86.3837 138.898C83.926 137.664 81.3872 136.556 79.038 135.147C76.6235 133.701 74.1394 132.859 71.3223 133.072C70.8393 133.113 70.3565 133.057 69.8718 133.043C69.8462 133.147 69.8123 133.245 69.7912 133.341L85.1688 141.934C85.1232 142.016 85.0731 142.106 85.0356 142.192C84.7564 142.079 84.4634 141.99 84.1978 141.852C78.9508 139.134 73.6765 136.465 68.4888 133.641C66.9379 132.795 65.409 132.926 63.7841 132.96C64.2572 133.224 64.7386 133.493 65.2117 133.758C97.9167 152.035 130.622 170.311 163.327 188.588C164.689 189.35 164.908 189.322 166.135 188.199C155.669 182.425 145.211 176.677 135.089 170.325C135.522 170.278 135.895 170.357 136.226 170.532C137.955 171.423 139.685 172.293 141.386 173.233C149.817 177.859 158.251 182.498 166.655 187.173C167.569 187.683 168.183 187.523 168.908 186.858C160.394 181.768 151.674 177.141 143.364 171.801C143.94 171.92 144.457 172.144 144.946 172.418C152.993 176.85 161.035 181.291 169.073 185.719C170.223 186.362 170.78 186.266 171.809 185.171C170.039 184.182 168.289 183.215 166.556 182.235C164.795 181.23 163.047 180.2 161.291 179.186C159.558 178.186 157.808 177.218 156.085 176.202C154.37 175.19 152.678 174.137 150.981 173.114C151.035 173.016 151.09 172.918 151.145 172.82C151.555 173.006 151.983 173.16 152.374 173.379C159.001 177.018 165.624 180.665 172.255 184.317C173.127 184.805 173.529 184.719 174.207 183.888C168.597 180.518 162.827 177.432 157.417 173.724C157.823 173.705 158.162 173.808 158.468 173.969C163.899 176.95 169.348 179.92 174.757 182.943C175.581 183.404 176.138 183.212 176.829 182.549C176.478 182.353 176.185 182.189 175.891 182.025C172.009 179.834 168.119 177.638 164.245 175.431C163.944 175.262 163.702 174.967 163.441 174.725C163.509 174.623 163.58 174.534 163.647 174.433C164.082 174.612 164.539 174.771 164.956 174.982C169.131 177.187 173.305 179.391 177.47 181.633C178.078 181.962 178.518 181.94 179.047 181.358C178.688 181.158 178.394 180.993 178.101 180.829C174.94 179.052 171.787 177.28 168.636 175.486C168.244 175.268 167.903 174.959 167.543 174.683C167.589 174.601 167.643 174.524 167.701 174.439C167.98 174.553 168.269 174.649 168.539 174.779C172.21 176.638 175.874 178.493 179.536 180.368C180.435 180.828 180.998 180.703 181.677 179.755L172.41 174.576C172.446 174.511 172.471 174.429 172.499 174.359C172.747 174.433 173.016 174.487 173.246 174.594C176.135 175.994 179.032 177.4 181.904 178.833C183.024 179.395 183.707 179.284 184.565 178.265L180.087 175.762C180.146 175.656 180.189 175.541 180.245 175.422C180.583 175.525 180.935 175.604 181.25 175.749C182.419 176.263 183.583 176.785 184.738 177.323C185.885 177.857 186.413 177.756 187.375 176.762C186.591 176.249 185.815 175.741 185.048 175.237C185.098 175.147 185.132 175.049 185.174 174.954C186.051 175.262 186.961 175.492 187.778 175.907C188.641 176.335 189.239 176.07 189.923 175.478C189.305 175.015 188.735 174.578 188.165 174.142C189.206 174.328 190.201 174.905 191.126 174.801C192.072 174.698 192.948 173.935 193.969 173.392C192.354 172.393 190.902 171.486 189.445 170.586C189.683 170.43 189.846 170.425 189.986 170.481C191.286 171.047 192.591 171.605 193.873 172.204C195.196 172.825 195.659 172.763 196.864 171.66C196.156 171.146 195.455 170.637 194.751 170.115L194.755 170.128ZM65.0055 78.4762L64.8642 78.7291C62.436 78.0358 60.302 76.5863 57.8563 75.6371C57.8863 76.3497 57.9602 76.9263 57.9216 77.4935C57.8668 78.3194 58.2097 78.7786 58.953 79.1726C61.339 80.4203 63.6875 81.7542 66.0415 83.059C66.2944 83.2004 66.5327 83.387 66.7764 83.5447C66.7217 83.6426 66.6625 83.7486 66.6078 83.8465C63.8026 82.5251 61.0021 81.1956 58.07 79.814C58.1387 81.0513 58.2358 82.1227 58.2413 83.1856C58.249 83.7466 58.456 84.0657 58.9364 84.3555C60.7726 85.4567 62.5815 86.6067 64.395 87.7486C64.5536 87.848 64.6884 88.009 64.8242 88.1491C64.7695 88.247 64.7066 88.3403 64.6438 88.4337C62.5985 87.4192 60.566 86.4011 58.4148 85.3273C58.4411 86.0272 58.4778 86.5937 58.4682 87.1664C58.4593 87.8145 58.7134 88.2027 59.3272 88.5029C60.542 89.1069 61.7103 89.8133 62.8967 90.487C63.1007 90.601 63.26 90.7757 63.433 90.9259C63.3874 91.0075 63.3418 91.089 63.3008 91.1625C61.7683 90.5523 60.2358 89.9421 58.6335 89.3036C58.6529 89.8818 58.7026 90.3485 58.6815 90.8078C58.6397 91.5338 58.93 91.953 59.61 92.2688C60.63 92.7424 61.607 93.3313 62.5941 93.8829C62.9041 94.0561 63.1695 94.2901 63.4613 94.4959C63.4111 94.5857 63.361 94.6754 63.319 94.7697C61.8527 94.1751 60.3864 93.5805 58.9365 92.9951C58.6322 94.5165 58.9972 95.5876 60.5253 96.1097C61.172 96.3319 61.7464 96.76 62.3445 97.1264C62.727 97.3615 63.0739 97.6411 63.4346 97.8961C63.3844 97.9859 63.3343 98.0756 63.2923 98.1699C61.904 97.6082 60.5239 97.051 59.1229 96.4929C58.8745 97.7994 59.1646 98.6788 60.3931 99.2582C61.4375 99.7456 62.3625 100.466 63.3285 101.113C63.6773 101.351 63.977 101.657 64.3031 101.936C64.2402 102.029 64.1728 102.131 64.1018 102.219L59.1989 99.4794C59.2495 100.653 59.3217 101.539 59.3186 102.426C59.3099 102.978 59.5571 103.245 60.0185 103.492C62.0598 104.59 64.083 105.72 66.1062 106.851C66.3672 106.997 66.5781 107.232 66.8164 107.419C66.7617 107.517 66.6952 107.598 66.6405 107.696C64.2968 106.621 61.9612 105.552 59.6093 104.473C59.2518 106.243 59.4757 106.743 60.8879 107.51C63.1287 108.731 65.3695 109.951 67.5976 111.174C67.932 111.361 68.2437 111.589 68.5645 111.8C68.5098 111.898 68.4551 111.996 68.4085 112.099C65.5281 110.778 62.6476 109.457 59.7509 108.128C59.5339 110.297 59.6052 110.476 61.3337 111.464C63.7266 112.833 66.1296 114.165 68.527 115.527C68.7962 115.677 69.0508 115.873 69.3063 116.048C69.2425 116.162 69.1787 116.276 69.1149 116.39C66.0751 114.895 63.0353 113.4 59.8686 111.844C59.9031 112.548 59.9833 113.171 59.9545 113.798C59.9163 114.536 60.2585 114.92 60.8821 115.279C63.2975 116.704 65.6846 118.199 68.0682 119.681C68.4588 119.921 68.7947 120.258 69.1498 120.542C69.0869 120.636 69.0286 120.721 68.9658 120.814L60.0411 115.827C60.1121 116.83 60.1991 117.574 60.2027 118.315C60.2022 118.871 60.4266 119.179 60.9069 119.469C63.4927 121.01 66.0558 122.592 68.6142 124.183C69.0655 124.467 69.4804 124.817 69.9007 125.137C69.8242 125.255 69.7477 125.373 69.6666 125.499L60.3258 120.279C60.3865 121.415 60.4652 122.251 60.4604 123.084C60.4524 123.711 60.7075 124.078 61.2449 124.4C63.0903 125.485 64.921 126.615 66.7436 127.741C67.1342 127.98 67.462 128.313 67.8171 128.597L67.592 128.943L60.7394 125.113C60.5234 126.17 60.6071 126.806 61.4659 127.146C61.7579 127.256 62.0206 127.456 62.2843 127.636C63.0881 128.171 63.8873 128.714 64.6784 129.252C64.6237 129.35 64.569 129.448 64.5143 129.546C63.3002 129.017 62.0779 128.484 60.7324 127.903C60.7986 129.011 60.8578 129.997 60.9116 131.012C82.522 131.805 104.007 132.592 125.688 133.393C102.167 98.1086 78.7814 63.0398 55.3963 27.9711C55.2911 29.3469 55.4104 30.6661 55.4207 31.9886C55.4267 32.8591 55.5356 33.5838 56.4742 33.9156C56.6057 33.9677 56.6897 34.1431 56.7974 34.2568C56.7655 34.3139 56.7463 34.3674 56.7225 34.4291C56.3624 34.3456 56.0058 34.2748 55.6457 34.1913C55.447 36.3284 55.5247 36.4575 57.3761 37.3208C58.0026 37.6174 58.6326 37.9267 59.2454 38.2478C59.531 38.4073 59.7855 38.6031 60.0574 38.7872C60.0063 38.8978 59.9597 39.0002 59.9168 39.1154C58.5664 38.6391 57.2242 38.1673 55.7831 37.6618C55.8028 38.1438 55.8609 38.5188 55.8191 38.8809C55.7327 39.6677 56.0749 40.0516 56.8057 40.353C58.1196 40.8945 59.3687 41.5712 60.6361 42.2152C60.9262 42.3666 61.1707 42.5996 61.4334 42.7999L61.2937 43.1073C59.5616 42.4712 57.8295 41.8351 56.0892 41.1944C55.7943 42.9673 55.9172 43.2073 57.3438 44.026C58.9255 44.9313 60.4889 45.8692 62.0524 46.8072C62.2889 46.9394 62.4708 47.1695 62.6755 47.3588C62.6253 47.4485 62.5589 47.5292 62.5087 47.6189C60.4316 46.6615 58.3463 45.6996 56.2401 44.7366C56.07 46.7078 56.0791 46.6914 57.709 47.5488C59.3225 48.397 60.9179 49.2778 62.5087 50.1668C62.7779 50.3173 62.9833 50.5819 63.2206 50.7895C63.1659 50.8874 63.1076 50.9725 63.0447 51.0659C60.8514 50.0864 58.6663 49.1115 56.4277 48.1174C56.3114 49.3728 56.7572 50.2607 57.7653 50.7812C59.5919 51.7271 61.4186 52.673 63.2361 53.6352C63.5135 53.7902 63.7462 54.0059 64.0008 54.2017C63.9415 54.3077 63.8823 54.4138 63.8184 54.528C61.4193 53.4763 59.0202 52.4246 56.5186 51.3264C56.5442 51.9509 56.5984 52.4094 56.5773 52.8687C56.531 53.6029 56.8468 54.0149 57.514 54.3343C58.6691 54.8727 59.7776 55.5136 60.8825 56.1418C61.372 56.4153 61.8204 56.7623 62.2917 57.0684C62.2324 57.1745 62.1858 57.277 62.1347 57.3876C60.3748 56.6288 58.6103 55.8783 56.7397 55.0685C56.7743 55.7729 56.841 56.3241 56.8078 56.8623C56.7589 57.5629 57.0557 57.9321 57.6766 58.2578C59.3392 59.1333 60.9643 60.095 62.604 61.0114C62.808 61.1254 62.9673 61.3 63.1403 61.4502L62.9761 61.7439C61.005 60.8458 59.0376 59.9604 57.0537 59.0659C56.7718 60.739 56.9071 61.0715 58.245 61.8192C60.2437 62.9361 62.2515 64.0368 64.2502 65.1537C64.5112 65.2996 64.7504 65.4654 65.0024 65.6276C64.9431 65.7337 64.892 65.8443 64.8409 65.9549C63.5779 65.3989 62.2875 64.8919 61.0563 64.2789C59.8007 63.6521 58.5917 62.9229 57.3599 62.2345C57.298 62.307 57.2233 62.383 57.1614 62.4555C57.1969 63.1391 57.266 63.82 57.2471 64.5053C57.219 65.2069 57.5275 65.5934 58.1403 65.9145C60.5752 67.1896 62.9909 68.5181 65.403 69.834C65.7701 70.0392 66.0962 70.3177 66.445 70.5555C66.3995 70.6371 66.3584 70.7105 66.3128 70.7921C63.2548 69.6934 60.4644 67.9626 57.3715 66.6197C57.4272 67.5928 57.516 68.3918 57.504 69.1988C57.4857 69.9594 57.8578 70.3279 58.5052 70.6255C59.4518 71.0581 60.3746 71.5524 61.2837 72.0711C61.8058 72.3629 62.2722 72.7735 62.7624 73.1223C62.6895 73.2529 62.6211 73.3752 62.5481 73.5058C60.9559 72.8301 59.3764 72.1508 57.6608 71.4276C57.6997 72.2201 57.7688 72.901 57.7498 73.5863C57.7321 74.1545 57.9691 74.4583 58.4631 74.7236C60.3786 75.7405 62.2794 76.8028 64.1801 77.865C64.4901 78.0383 64.7546 78.2931 65.029 78.5107L65.0055 78.4762ZM121.441 123.943C136.534 102.99 151.509 82.2079 166.48 61.4336C166.416 61.3763 166.352 61.3189 166.287 61.2616C155.761 67.5301 145.244 73.8032 134.718 80.0717C134.93 80.3617 135.079 80.5736 135.249 80.8073C134.543 81.0552 133.757 80.2199 133.193 81.1144C133.398 81.3791 133.62 81.6528 133.833 81.9221C132.625 81.4606 131.625 81.5444 130.755 82.6214C130.989 82.8163 131.22 82.9775 131.42 83.175C131.629 83.377 131.815 83.599 132.011 83.8046C131.966 83.8653 131.921 83.926 131.877 83.9867C131.432 83.824 130.979 83.6777 130.545 83.4778C129.569 83.0396 129.168 83.1258 128.436 84.0126C129.522 84.6943 130.595 85.3795 131.681 86.0612L131.539 86.3141C131.321 86.2455 131.093 86.1932 130.88 86.0955C129.846 85.6463 128.818 85.1681 127.785 84.7189C127.588 84.6304 127.3 84.5335 127.145 84.6184C126.391 85.0104 125.671 85.4752 124.85 85.9479C126.187 86.7918 127.386 87.5581 128.582 88.3118C128.545 88.3771 128.517 88.4469 128.489 88.5167C128.282 88.4654 128.065 88.4512 127.868 88.3627C126.83 87.9216 125.743 87.5495 124.777 86.9779C123.885 86.4474 123.304 86.7219 122.638 87.3774C124.467 88.5493 126.258 89.7111 128.054 90.8648C128 90.9627 127.949 91.0524 127.895 91.1503C127.349 90.9202 126.788 90.7354 126.261 90.4727C124.896 89.7739 123.549 89.0217 122.18 88.3311C121.898 88.1843 121.47 88.0307 121.234 88.1454C120.465 88.5075 119.756 88.9895 118.818 89.5572L122.84 91.8048C122.781 91.9108 122.73 92.0214 122.678 92.132C121.341 91.5559 120.005 90.9589 118.658 90.3991C118.379 90.2859 117.998 90.1052 117.793 90.2045C116.957 90.6263 116.168 91.1381 115.286 91.6624C116.619 92.5353 117.821 93.3144 119.019 94.1016C118.964 94.1995 118.914 94.2893 118.86 94.3872C118.576 94.2821 118.278 94.2015 118.008 94.0719C116.931 93.5663 115.867 93.0363 114.799 92.5353C114.577 92.433 114.253 92.3051 114.085 92.3937C113.185 92.8752 112.31 93.4249 111.222 94.0694L116.492 97.0145C116.187 97.1762 115.953 97.1738 115.757 97.0852C114.173 96.3932 112.599 95.6849 111.008 94.9883C110.733 94.8669 110.359 94.6363 110.154 94.7357C109.444 95.067 108.783 95.5219 107.849 96.0814L113.674 99.3366C113.624 99.4263 113.587 99.5124 113.545 99.6067C113.231 99.517 112.889 99.4762 112.595 99.333C110.911 98.5526 109.241 97.7479 107.561 96.9803C107.299 96.8553 106.921 96.7082 106.695 96.8065C106.071 97.0791 105.509 97.4716 104.851 97.8639L110.562 101.055C110.52 101.15 110.473 101.252 110.431 101.346C108.655 100.675 106.883 99.9949 104.95 99.2575C110.458 107.506 115.874 115.629 121.409 123.925L121.441 123.943ZM169.086 62.8253C169.003 62.8006 168.921 62.7759 168.838 62.7512C158.981 86.4048 149.128 110.05 139.201 133.868C149.029 134.232 158.681 134.584 168.329 134.944C168.336 134.894 168.342 134.844 168.349 134.794L157.76 128.877C157.805 128.795 157.846 128.722 157.884 128.636C162.052 130.237 165.927 132.499 170.071 134.376C170.069 133.422 170.047 132.617 170.084 131.803C170.108 131.281 169.927 130.955 169.466 130.687C167.141 129.388 164.839 128.048 162.532 126.716C162.263 126.565 162.017 126.374 161.757 126.207C161.816 126.101 161.875 125.995 161.934 125.889C164.592 127.149 167.262 128.406 170.005 129.704C170.002 128.867 170.057 128.116 169.966 127.38C169.927 127.047 169.678 126.63 169.392 126.471C168.239 125.815 167.031 125.237 165.85 124.63C165.368 124.382 164.903 124.101 164.43 123.837L164.604 123.527C166.35 124.214 168.1 124.913 169.949 125.647C169.951 125.07 169.894 124.577 169.966 124.104C170.111 123.136 169.702 122.661 168.802 122.297C167.808 121.892 166.904 121.269 165.966 120.744C166.02 120.646 166.063 120.531 166.11 120.429C167.328 120.874 168.554 121.324 169.903 121.821C169.893 121.055 169.857 120.371 169.892 119.695C169.925 119.157 169.713 118.867 169.248 118.607C168.489 118.183 167.781 117.669 167.049 117.196C167.1 117.106 167.142 117.012 167.184 116.918C168.039 117.246 168.906 117.57 169.815 117.917C169.827 117.571 169.819 117.278 169.857 116.999C170.065 115.67 169.594 114.711 168.371 114.102C168.012 113.923 167.703 113.632 167.375 113.395C167.43 113.298 167.484 113.2 167.539 113.102C168.249 113.402 168.972 113.699 169.821 114.056C169.579 96.9417 169.339 79.8817 169.098 62.8217L169.086 62.8253ZM165.429 66.2845C165.372 66.2526 165.315 66.2207 165.258 66.1887C163.86 68.095 162.447 69.9922 161.066 71.9076C157.901 76.3266 154.763 80.7719 151.582 85.1817C147.662 90.6244 143.695 96.0189 139.775 101.462C136.495 106.009 133.251 110.588 129.975 115.148C127.65 118.388 125.285 121.605 122.96 124.845C122.826 125.028 122.702 125.365 122.778 125.536C122.993 126.052 123.288 126.538 123.598 127C124.701 128.666 125.886 130.281 126.899 131.993C127.547 133.093 128.38 133.441 129.578 133.425C131.96 133.397 134.356 133.419 136.74 133.52C137.241 133.543 137.452 133.511 137.636 133.047C139.758 127.948 141.891 122.867 144.02 117.773C145.995 113.052 147.977 108.336 149.943 103.611C151.406 100.093 152.841 96.5484 154.304 93.0301C156.004 88.9162 157.724 84.8032 159.44 80.6983C160.545 78.0506 161.686 75.4338 162.791 72.7861C163.685 70.6307 164.555 68.4617 165.437 66.289L165.429 66.2845ZM219.704 133.357C219.682 133.474 219.659 133.59 219.637 133.706C220.226 133.821 220.82 133.928 221.408 134.042C221.43 133.926 221.453 133.81 221.475 133.694C220.886 133.579 220.292 133.472 219.704 133.357Z" fill="black"/>
<path d="M194.759 170.14C195.468 170.654 196.168 171.163 196.872 171.685C195.667 172.789 195.204 172.851 193.881 172.23C192.599 171.631 191.294 171.073 189.994 170.507C189.854 170.45 189.691 170.455 189.453 170.612C190.91 171.511 192.362 172.419 193.977 173.418C192.961 173.953 192.085 174.716 191.134 174.827C190.209 174.931 189.206 174.349 188.173 174.168C188.743 174.604 189.325 175.036 189.931 175.504C189.252 176.087 188.641 176.356 187.786 175.932C186.969 175.518 186.054 175.296 185.182 174.98C185.132 175.07 185.098 175.168 185.056 175.263C185.831 175.771 186.599 176.275 187.383 176.788C186.429 177.786 185.902 177.887 184.746 177.349C183.591 176.81 182.427 176.288 181.258 175.774C180.938 175.638 180.586 175.559 180.253 175.448C180.193 175.554 180.15 175.669 180.095 175.788L184.573 178.29C183.715 179.309 183.037 179.412 181.912 178.858C179.04 177.425 176.143 176.02 173.254 174.619C173.016 174.508 172.755 174.458 172.507 174.384C172.471 174.45 172.446 174.532 172.418 174.602L181.685 179.781C181.005 180.729 180.443 180.853 179.544 180.394C175.882 178.518 172.21 176.659 168.547 174.805C168.281 174.667 167.988 174.578 167.709 174.465C167.663 174.546 167.61 174.623 167.551 174.709C167.915 174.976 168.257 175.285 168.644 175.512C171.795 177.305 174.953 179.07 178.109 180.855C178.402 181.019 178.696 181.183 179.055 181.384C178.522 181.974 178.078 181.983 177.478 181.658C173.321 179.421 169.147 177.217 164.964 175.008C164.552 174.788 164.09 174.637 163.655 174.458C163.588 174.56 163.517 174.649 163.449 174.75C163.715 174.984 163.956 175.28 164.253 175.456C168.127 177.664 172.021 179.851 175.899 182.05C176.193 182.214 176.486 182.378 176.837 182.574C176.141 183.245 175.597 183.434 174.765 182.969C169.356 179.946 163.907 176.976 158.476 173.994C158.174 173.826 157.836 173.722 157.425 173.749C162.835 177.458 168.618 180.54 174.215 183.914C173.537 184.745 173.14 184.823 172.263 184.343C165.64 180.696 159.017 177.048 152.382 173.404C151.991 173.185 151.563 173.032 151.153 172.846C151.098 172.944 151.043 173.042 150.989 173.139C152.69 174.176 154.378 175.216 156.093 176.228C157.816 177.244 159.562 178.22 161.299 179.211C163.055 180.225 164.803 181.255 166.564 182.261C168.3 183.253 170.055 184.212 171.817 185.197C170.788 186.292 170.236 186.379 169.081 185.745C161.039 181.304 152.993 176.871 144.954 172.443C144.465 172.17 143.948 171.945 143.372 171.827C151.682 177.167 160.402 181.793 168.916 186.883C168.191 187.549 167.585 187.713 166.663 187.198C158.259 182.523 149.825 177.885 141.394 173.259C139.688 172.327 137.963 171.448 136.234 170.557C135.903 170.383 135.526 170.311 135.097 170.35C145.219 176.702 155.677 182.451 166.143 188.224C164.916 189.348 164.697 189.375 163.335 188.614C130.63 170.337 97.9246 152.06 65.2197 133.783C64.7465 133.519 64.2652 133.25 63.7921 132.985C65.4169 132.951 66.9458 132.821 68.4968 133.666C73.6845 136.49 78.9588 139.159 84.2058 141.878C84.4668 142.023 84.7643 142.104 85.0436 142.217C85.0892 142.136 85.1394 142.046 85.1768 141.96L69.7992 133.366C69.8249 133.263 69.8587 133.164 69.8798 133.069C70.3645 133.083 70.8518 133.13 71.3303 133.098C74.1474 132.884 76.6279 133.714 79.046 135.172C81.3952 136.581 83.934 137.69 86.3917 138.924C86.592 139.025 86.807 139.081 87.0767 139.039C84.2908 136.936 81.1841 135.35 78.2424 133.449C80.1075 133.56 81.9893 133.124 83.7941 134.089C85.472 134.995 87.2411 135.737 88.9737 136.545C89.1949 136.647 89.4526 136.684 89.6921 136.754C89.7377 136.672 89.7787 136.599 89.8243 136.517L85.1417 133.9C87.8727 133.285 90.2524 134.123 92.574 135.313C92.6078 135.214 92.6544 135.112 92.6882 135.013C92.1944 134.651 91.7088 134.294 91.0691 133.83C146.002 135.838 200.784 137.847 255.633 139.851C254.979 140.695 254.236 140.493 253.32 140.121C253.561 140.513 253.686 140.711 253.811 140.909C253.779 140.966 253.742 141.031 253.718 141.093C252.94 140.819 252.149 140.548 251.371 140.274C251.339 140.331 251.308 140.388 251.276 140.445C251.733 140.776 252.186 141.115 252.688 141.481C252.155 142.071 251.609 142.205 250.893 141.762C249.871 141.138 248.801 140.582 247.748 139.994C247.676 140.125 247.591 140.238 247.518 140.369C248.539 141.089 249.568 141.814 250.642 142.575C250.162 143.109 249.697 143.385 248.966 142.987C247.673 142.275 246.347 141.62 245.022 140.965C244.719 140.817 244.385 140.726 244.063 140.611C244.013 140.701 243.959 140.799 243.908 140.889C245.413 141.836 246.909 142.78 248.414 143.727C247.728 144.629 246.982 144.833 246 144.349C244.494 143.614 242.999 142.842 241.485 142.103C241.214 141.974 240.917 141.893 240.628 141.796C240.569 141.902 240.515 142 240.455 142.106L245.88 145.138C244.587 146.246 244.377 146.257 243.174 145.67C241.652 144.927 240.116 144.208 238.581 143.468C238.517 143.582 238.453 143.696 238.381 143.806C239.928 144.755 241.482 145.71 243.032 146.672C241.91 147.855 241.007 148.035 239.669 147.459C238.763 147.07 237.837 146.734 236.915 146.391C236.739 146.324 236.533 146.327 236.334 146.301C236.297 146.367 236.261 146.432 236.22 146.505L239.671 148.434C238.158 150.201 236.588 149.698 234.982 148.758C234.952 148.869 234.917 148.989 234.879 149.096C235.371 149.499 235.875 149.899 236.436 150.352C235.478 150.994 234.607 151.728 233.317 151.028C232.754 150.714 232.065 150.607 231.438 150.406C231.392 150.509 231.345 150.611 231.299 150.714C231.957 151.125 232.612 151.544 233.279 151.96C232.309 152.948 231.802 153.051 230.613 152.515C229.691 152.096 228.76 151.693 227.832 151.303C227.792 151.28 227.722 151.327 227.438 151.415C228.521 152.159 229.486 152.827 230.451 153.495C229.403 154.547 229.011 154.596 227.818 153.972C226.74 153.412 225.643 152.884 224.546 152.357C224.308 152.246 224.03 152.208 223.769 152.137C223.71 152.243 223.655 152.341 223.596 152.447C224.907 153.319 226.218 154.191 227.546 155.072C226.209 156.316 225.582 156.383 224.064 155.653C222.189 154.755 220.274 153.909 218.376 153.052C218.204 152.977 218.012 152.956 217.738 153.102L224.476 156.868C223.712 157.297 223.151 157.669 222.554 157.913C222.332 158.004 221.954 157.857 221.697 157.723C218.961 156.334 216.227 154.924 213.497 153.527C213.301 153.417 213.078 153.357 212.864 153.28C212.814 153.37 212.764 153.459 212.713 153.549C215.461 155.223 218.216 156.902 220.963 158.577C220.109 159.684 218.972 159.916 217.779 159.313C214.65 157.747 211.5 156.2 208.362 154.65C208.231 154.577 208.069 154.561 207.917 154.508C207.871 154.59 207.83 154.663 207.784 154.745L217.655 160.261C217.654 160.378 217.645 160.491 217.648 160.6C216.649 161.123 215.658 161.671 214.632 162.147C214.444 162.235 214.085 162.034 213.835 161.905C210.541 160.214 207.243 158.51 203.945 156.807C203.471 156.563 202.974 156.36 202.491 156.133C202.427 156.247 202.363 156.361 202.307 156.48L213.321 162.635C213.295 162.738 213.277 162.846 213.247 162.958C212.427 163.41 211.618 163.9 210.768 164.291C210.554 164.386 210.173 164.205 209.916 164.072C206.849 162.433 203.792 160.778 200.73 159.131C200.42 158.958 200.073 158.85 199.663 158.856C202.615 161.256 206.059 162.87 209.207 164.939C208.261 166.038 207.602 166.162 206.41 165.518C203.989 164.218 201.551 162.93 199.12 161.647C198.81 161.474 198.454 161.403 198.043 161.409C200.536 163.52 203.467 164.922 206.259 166.707C205.246 167.372 204.391 167.943 203.148 167.217C201.502 166.254 199.748 165.466 198.038 164.618C197.486 164.342 196.902 164.122 196.277 163.976C198.253 165.862 200.631 167.105 203.073 168.31C201.645 169.62 201.211 169.667 199.689 168.848C198.063 167.983 196.407 167.154 194.682 166.447C196.113 168.006 197.965 168.945 199.722 170.034C199.043 170.961 198.239 171.175 197.304 170.759C196.52 170.418 195.722 170.122 194.921 169.813C194.861 169.919 194.814 170.042 194.763 170.153L194.759 170.14ZM201.126 139.783C200.214 139.059 126.381 136.445 123.708 136.996C124.931 137.412 200.522 140.173 201.126 139.783Z" fill="#EEBF27"/>
<path d="M65.0042 78.4768C64.717 78.2628 64.4572 77.9998 64.1553 77.8311C62.2545 76.7689 60.3619 75.7112 58.4383 74.6897C57.9361 74.4198 57.7027 74.1287 57.725 73.5524C57.7394 72.8753 57.6703 72.1943 57.636 71.3937C59.347 72.125 60.9393 72.8007 62.5233 73.4719C62.5963 73.3413 62.6647 73.219 62.7376 73.0884C62.252 72.7314 61.781 72.329 61.2589 72.0372C60.3497 71.5185 59.4397 71.0206 58.4804 70.5916C57.833 70.294 57.4609 69.9255 57.4791 69.1649C57.4911 68.3579 57.4069 67.5508 57.3467 66.5858C60.4441 67.9206 63.2346 69.6513 66.288 70.7582C66.3336 70.6766 66.3746 70.6032 66.4202 70.5216C66.0759 70.2757 65.7498 69.9971 65.3782 69.8001C62.9661 68.4842 60.5504 67.1557 58.1155 65.8806C57.5027 65.5595 57.2023 65.1775 57.2222 64.4714C57.2494 63.7907 57.1721 63.1052 57.1366 62.4216C57.1985 62.3491 57.2731 62.2731 57.335 62.2006C58.5669 62.889 59.7759 63.6182 61.0315 64.245C62.2626 64.858 63.553 65.365 64.8161 65.921C64.8753 65.8149 64.9264 65.7043 64.9776 65.5937C64.7256 65.4315 64.4864 65.2657 64.2253 65.1198C62.2267 64.0029 60.2189 62.9022 58.2202 61.7853C56.8823 61.0376 56.747 60.7051 57.0289 59.032C59.0046 59.9219 60.9757 60.8201 62.9432 61.7055L63.1073 61.4118C62.9297 61.2697 62.7668 61.0823 62.571 60.9729C60.9404 60.0403 59.3108 59.0867 57.6437 58.2193C57.0309 57.8982 56.7341 57.529 56.7749 56.8238C56.808 56.2856 56.7413 55.7345 56.7068 55.03C58.5819 55.8317 60.3418 56.5904 62.1018 57.3491C62.161 57.243 62.2076 57.1406 62.2587 57.03C61.792 56.7157 61.339 56.3769 60.8495 56.1033C59.7401 55.4833 58.6316 54.8424 57.4811 54.2958C56.8092 53.9846 56.498 53.5644 56.5444 52.8302C56.5736 52.3755 56.5113 51.9125 56.4856 51.2879C58.9872 52.3861 61.3863 53.4378 63.7855 54.4895C63.8447 54.3835 63.904 54.2774 63.9678 54.1632C63.7133 53.9674 63.4851 53.7436 63.2031 53.5967C61.3856 52.6345 59.559 51.6886 57.7323 50.7428C56.7243 50.2222 56.2784 49.3343 56.3947 48.0789C58.6252 49.0685 60.8184 50.048 63.0117 51.0274C63.0664 50.9295 63.1247 50.8443 63.1876 50.751C62.9503 50.5435 62.7449 50.2788 62.4757 50.1284C60.8849 49.2394 59.2896 48.3585 57.676 47.5103C56.0461 46.653 56.037 46.6693 56.2071 44.6982C58.3087 45.6693 60.394 46.6312 62.4757 47.5804C62.5259 47.4907 62.5924 47.4101 62.6425 47.3203C62.4378 47.131 62.2514 46.9091 62.0194 46.7687C60.456 45.8308 58.8925 44.8928 57.3109 43.9875C55.8842 43.1688 55.7568 42.937 56.0563 41.156C57.7965 41.7966 59.5286 42.4327 61.2608 43.0688L61.4004 42.7615C61.1331 42.5693 60.8932 42.3281 60.6031 42.1767C59.3357 41.5327 58.0866 40.8561 56.7727 40.3145C56.0419 40.0131 55.6997 39.6292 55.7861 38.8424C55.8279 38.4804 55.7698 38.1054 55.7501 37.6233C57.1912 38.1289 58.5416 38.6052 59.8838 39.0769C59.9349 38.9663 59.9815 38.8639 60.0244 38.7487C59.7526 38.5647 59.5026 38.3607 59.2125 38.2093C58.5997 37.8882 57.9742 37.5708 57.3431 37.2824C55.4918 36.419 55.414 36.29 55.6127 34.1528C55.9774 34.2282 56.3376 34.3117 56.6896 34.3906C56.7215 34.3335 56.7407 34.28 56.7644 34.2183C56.6567 34.1046 56.5773 33.9211 56.4412 33.8771C55.5026 33.5453 55.3937 32.8207 55.3877 31.9502C55.3774 30.6276 55.2536 29.3166 55.3633 27.9326C78.7485 63.0014 102.142 98.0747 125.664 133.338C103.983 132.538 82.4981 131.75 60.8877 130.957C60.8258 129.938 60.7666 128.952 60.7085 127.849C62.0541 128.429 63.2682 128.958 64.4904 129.491C64.5451 129.393 64.5998 129.295 64.6545 129.197C63.8553 128.654 63.0642 128.116 62.2605 127.581C61.9968 127.402 61.7295 127.209 61.442 127.092C60.5914 126.755 60.4996 126.115 60.7155 125.058L67.5681 128.888L67.7932 128.543C67.4381 128.259 67.1022 127.921 66.7197 127.686C64.9017 126.552 63.0792 125.427 61.2211 124.345C60.6791 124.032 60.4367 123.661 60.4365 123.029C60.4413 122.197 60.3626 121.36 60.3019 120.224L69.6427 125.444C69.7193 125.326 69.7958 125.208 69.8769 125.082C69.4484 124.757 69.0417 124.412 68.5904 124.128C66.0274 122.546 63.4643 120.963 60.8831 119.414C60.4027 119.124 60.1866 118.821 60.1789 118.26C60.1753 117.519 60.0928 116.767 60.0172 115.772L68.9419 120.759C69.0048 120.666 69.0631 120.581 69.126 120.487C68.7627 120.199 68.4304 119.874 68.0443 119.626C65.6608 118.144 63.2737 116.65 60.8582 115.225C60.2392 114.857 59.9052 114.478 59.9306 113.743C59.9549 113.125 59.8793 112.494 59.8447 111.789C63.0114 113.345 66.0512 114.84 69.091 116.336C69.1548 116.221 69.2186 116.107 69.2825 115.993C69.0269 115.818 68.7678 115.63 68.5032 115.472C66.1057 114.111 63.6982 112.786 61.3098 111.409C59.5732 110.417 59.5101 110.243 59.727 108.073C62.6319 109.407 65.5042 110.723 68.3847 112.044C68.4394 111.946 68.4941 111.848 68.5406 111.746C68.2198 111.534 67.9082 111.307 67.5737 111.12C65.3375 109.891 63.0967 108.671 60.8641 107.456C59.4518 106.688 59.2234 106.196 59.5855 104.418C61.9374 105.497 64.2811 106.571 66.6166 107.641C66.6713 107.543 66.7378 107.462 66.7925 107.364C66.5588 107.17 66.3434 106.942 66.0823 106.796C64.0591 105.666 62.036 104.535 59.9946 103.437C59.5459 103.186 59.2906 102.915 59.2947 102.371C59.2979 101.485 59.2256 100.598 59.175 99.4246L64.0779 102.165C64.1408 102.071 64.2082 101.97 64.2792 101.881C63.9532 101.602 63.6535 101.296 63.3046 101.058C62.3386 100.411 61.4091 99.6989 60.3692 99.2034C59.1407 98.624 58.8507 97.7446 59.099 96.4381C60.4955 97.0044 61.8801 97.5534 63.2684 98.1151C63.3186 98.0254 63.3687 97.9357 63.4107 97.8414C63.0501 97.5863 62.695 97.3022 62.3207 97.0716C61.7307 96.7098 61.1435 96.2853 60.5015 96.055C58.9779 95.5247 58.6002 94.4572 58.9126 92.9403C60.3626 93.5258 61.8289 94.1204 63.2951 94.7149C63.3453 94.6252 63.3954 94.5355 63.4374 94.4412C63.1456 94.2353 62.8803 94.0013 62.5703 93.8281C61.5832 93.2765 60.6143 92.6922 59.5862 92.214C58.9143 91.9028 58.6159 91.479 58.6576 90.753C58.6869 90.2983 58.6327 89.8398 58.6097 89.2488C60.2201 89.8919 61.7526 90.5021 63.2769 91.1077C63.3225 91.0261 63.3681 90.9445 63.4091 90.8711C63.2316 90.7291 63.0687 90.5417 62.8729 90.4323C61.6864 89.7585 60.5181 89.0521 59.3033 88.4481C58.6896 88.148 58.44 87.7516 58.4444 87.1117C58.454 86.5389 58.4091 85.9679 58.3909 85.2725C60.5422 86.3463 62.5874 87.3608 64.6199 88.3789C64.6746 88.281 64.7375 88.1876 64.8004 88.0943C64.66 87.9623 64.5333 87.8059 64.3711 87.6938C62.5577 86.5519 60.7488 85.4019 58.9125 84.3008C58.4322 84.0109 58.2251 83.6918 58.2175 83.1308C58.2038 82.0633 58.1148 80.9965 58.0462 79.7592C60.9782 81.1408 63.7788 82.4703 66.5839 83.7917C66.6386 83.6938 66.6979 83.5878 66.7526 83.4899C66.5134 83.3241 66.2751 83.1374 66.0177 83.0042C63.6636 81.6994 61.3151 80.3656 58.9292 79.1178C58.1859 78.7238 57.8466 78.2773 57.8977 77.4387C57.9363 76.8715 57.867 76.2868 57.8325 75.5823C60.27 76.527 62.404 77.9765 64.8403 78.6743L64.9817 78.4214L65.0042 78.4768ZM77.1 66.6408C77.0391 66.6924 76.97 66.7394 76.9136 66.7828C77.0374 67.0019 77.1485 67.2245 77.2896 67.4318C81.3984 73.6999 85.46 79.995 89.6162 86.2359C98.1293 98.9905 106.69 111.718 115.225 124.453C115.436 124.764 115.621 125.103 115.886 125.358C116.01 125.48 116.351 125.521 116.485 125.435C116.627 125.333 116.716 125.04 116.696 124.847C116.664 124.636 116.48 124.448 116.351 124.258C111.505 117.086 106.681 109.914 101.818 102.754C94.5015 91.9957 87.1679 81.2492 79.8343 70.5026C78.9444 69.2024 78.0199 67.9257 77.1082 66.6453L77.1 66.6408Z" fill="#EEBF27"/>
<path d="M121.432 123.939C115.897 115.643 110.48 107.52 104.973 99.2719C106.906 100.009 108.682 100.681 110.454 101.361C110.496 101.266 110.543 101.164 110.585 101.07L104.874 97.8783C105.541 97.4906 106.102 97.0981 106.718 96.8209C106.944 96.7226 107.309 96.8733 107.584 96.9947C109.272 97.7668 110.938 98.5798 112.618 99.3474C112.917 99.4825 113.254 99.5314 113.567 99.6212C113.618 99.5314 113.655 99.4453 113.697 99.351L107.872 96.0959C108.806 95.5363 109.467 95.0814 110.177 94.7501C110.378 94.6589 110.752 94.8895 111.031 95.0028C112.614 95.6948 114.196 96.4077 115.779 97.0997C115.976 97.1882 116.207 97.1779 116.515 97.0289L111.245 94.0838C112.338 93.4312 113.208 92.8896 114.108 92.4081C114.276 92.3196 114.6 92.4474 114.821 92.5497C115.903 93.0471 116.967 93.5771 118.031 94.0863C118.301 94.2159 118.599 94.2965 118.882 94.4016C118.937 94.3037 118.987 94.214 119.042 94.1161C117.839 93.337 116.641 92.5497 115.309 91.6768C116.191 91.1525 116.972 90.6362 117.815 90.2189C118.021 90.1196 118.402 90.3003 118.681 90.4135C120.023 90.9815 121.364 91.5703 122.701 92.1465C122.761 92.0404 122.812 91.9298 122.863 91.8192L118.841 89.5716C119.775 89.0121 120.496 88.5264 121.257 88.1598C121.493 88.0451 121.916 88.2069 122.203 88.3456C123.568 89.0443 124.918 89.7884 126.284 90.4871C126.807 90.758 127.367 90.9428 127.918 91.1647C127.972 91.0668 128.022 90.9771 128.077 90.8792C126.281 89.7255 124.485 88.5719 122.661 87.3918C123.314 86.7399 123.904 86.47 124.8 86.9923C125.765 87.5639 126.845 87.9315 127.891 88.3771C128.08 88.4611 128.305 88.4798 128.512 88.5311C128.548 88.4659 128.576 88.396 128.605 88.3262C127.401 87.568 126.21 86.8062 124.873 85.9623C125.69 85.4769 126.414 85.0249 127.168 84.6328C127.322 84.5479 127.611 84.6448 127.808 84.7334C128.841 85.1825 129.874 85.6526 130.903 86.1099C131.116 86.2076 131.352 86.2645 131.579 86.3377L131.72 86.0848C130.626 85.3985 129.553 84.7132 128.467 84.0315C129.203 83.1366 129.592 83.054 130.576 83.4968C131.01 83.6966 131.468 83.8348 131.908 84.0057C131.952 83.945 131.997 83.8843 132.042 83.8236C131.851 83.6098 131.664 83.3878 131.451 83.194C131.247 83.0046 131.02 82.8352 130.786 82.6404C131.66 81.576 132.664 81.4842 133.864 81.941C133.651 81.6718 133.429 81.398 133.224 81.1334C133.788 80.2389 134.574 81.0741 135.28 80.8263C135.102 80.588 134.957 80.3889 134.749 80.0906C145.267 73.8176 155.793 67.5491 166.319 61.2806C166.383 61.3379 166.447 61.3953 166.511 61.4526C151.54 82.2268 136.565 103.009 121.472 123.962L121.432 123.939ZM149.859 82.0365C149.785 81.9955 149.717 81.9463 149.64 81.8926C149.401 82.1661 149.151 82.4224 148.937 82.7096C145.18 87.8795 141.452 93.0758 137.671 98.232C133.784 103.521 129.84 108.779 125.928 114.055C125.481 114.662 125.019 115.26 124.63 115.899C124.525 116.086 124.627 116.401 124.637 116.652C124.882 116.596 125.162 116.593 125.369 116.472C125.58 116.344 125.729 116.096 125.877 115.889C127.437 113.806 129.022 111.737 130.562 109.632C133.942 105.001 137.35 100.397 140.653 95.7125C143.652 91.4574 146.526 87.1004 149.439 82.7871C149.605 82.5479 149.722 82.2813 149.868 82.0202L149.859 82.0365Z" fill="#EEBF27"/>
<path d="M169.084 62.8259C169.324 79.8859 169.565 96.9458 169.807 114.06C168.957 113.703 168.247 113.403 167.524 113.106C167.47 113.204 167.415 113.302 167.36 113.4C167.696 113.641 167.997 113.927 168.357 114.107C169.58 114.715 170.05 115.674 169.843 117.003C169.8 117.29 169.812 117.575 169.801 117.922C168.892 117.574 168.029 117.242 167.169 116.922C167.119 117.012 167.077 117.106 167.035 117.2C167.766 117.673 168.475 118.187 169.233 118.611C169.698 118.871 169.911 119.161 169.878 119.699C169.843 120.375 169.886 121.063 169.889 121.825C168.54 121.328 167.322 120.883 166.095 120.433C166.041 120.531 165.998 120.646 165.951 120.749C166.889 121.273 167.794 121.896 168.788 122.301C169.679 122.66 170.083 123.143 169.951 124.108C169.879 124.582 169.936 125.074 169.935 125.651C168.086 124.917 166.323 124.221 164.573 123.522L164.4 123.832C164.889 124.105 165.358 124.378 165.835 124.634C167.02 125.253 168.224 125.819 169.378 126.475C169.664 126.634 169.908 127.06 169.951 127.384C170.043 128.12 169.987 128.871 169.991 129.708C167.247 128.41 164.582 127.145 161.92 125.893C161.861 125.999 161.801 126.105 161.742 126.211C161.998 126.386 162.249 126.569 162.518 126.72C164.825 128.052 167.131 129.384 169.452 130.691C169.917 130.951 170.09 131.273 170.07 131.807C170.037 132.613 170.054 133.426 170.056 134.38C165.913 132.503 162.038 130.241 157.869 128.64C157.824 128.721 157.783 128.795 157.745 128.881L168.334 134.798C168.334 134.798 168.321 134.898 168.315 134.948C158.662 134.596 149.014 134.236 139.187 133.872C149.109 110.063 158.966 86.4089 168.824 62.7553C168.906 62.7801 168.989 62.8048 169.071 62.8295L169.084 62.8259ZM166.766 71.8399C166.684 71.7943 166.585 71.7605 166.499 71.7231C166.28 72.1146 166.021 72.4834 165.847 72.8896C164.197 77.031 162.538 81.1677 160.924 85.3192C158.434 91.7104 155.968 98.1153 153.498 104.508C151.318 110.152 149.159 115.797 146.992 121.437C146.844 121.836 146.561 122.342 147.155 122.545C147.731 122.739 147.833 122.174 147.981 121.775C148.491 120.422 149.009 119.074 149.531 117.717C152.301 110.444 155.07 103.17 157.832 95.8916C160.241 89.5301 162.638 83.1722 165.031 76.8016C165.651 75.1566 166.196 73.4914 166.778 71.8363L166.766 71.8399Z" fill="#EEBF27"/>
<path d="M165.438 66.2894C164.56 68.4539 163.691 70.623 162.792 72.7865C161.692 75.4261 160.554 78.0555 159.441 80.6987C157.725 84.8036 156.005 88.9166 154.305 93.0306C152.85 96.5533 151.407 100.093 149.944 103.612C147.978 108.337 145.996 113.053 144.021 117.773C141.892 122.867 139.754 127.957 137.637 133.047C137.445 133.507 137.242 133.544 136.741 133.521C134.357 133.42 131.969 133.402 129.579 133.426C128.381 133.442 127.548 133.094 126.9 131.993C125.891 130.273 124.702 128.666 123.598 127.001C123.294 126.53 122.998 126.044 122.779 125.536C122.708 125.357 122.827 125.028 122.961 124.846C125.294 121.61 127.651 118.388 129.976 115.148C133.248 110.596 136.491 106.018 139.776 101.462C143.704 96.0239 147.663 90.6248 151.583 85.1821C154.764 80.7723 157.897 76.3351 161.067 71.9081C162.44 69.9881 163.861 68.0954 165.258 66.1891C165.316 66.2211 165.373 66.253 165.43 66.2849L165.438 66.2894Z" fill="#EEBF27"/>
<path d="M225.063 134.512C225.565 134.514 226.082 134.471 226.576 134.544C229.882 135.085 233.19 135.66 236.494 136.222C238.138 136.498 239.782 136.775 241.425 137.072C241.699 137.118 241.959 137.209 242.227 137.284C242.22 137.355 242.22 137.431 242.213 137.501C241.686 137.506 241.165 137.537 240.644 137.513C236.509 137.344 232.371 137.183 228.241 137.005C226.174 136.91 224.111 136.752 222.051 136.683C219.549 136.601 217.035 136.599 214.528 136.525C211.244 136.424 207.958 136.29 204.67 136.176C200.577 136.03 196.487 135.896 192.398 135.742C186.622 135.522 180.838 135.298 175.058 135.065C174.307 135.031 173.55 134.929 172.811 134.987C172.067 135.053 171.889 134.664 171.877 134.091C171.857 132.27 171.857 130.45 171.848 128.625C171.847 127.939 171.832 127.256 171.805 126.577C171.76 125.45 172.036 125.187 173.157 125.364C174.271 125.536 175.378 125.738 176.491 125.931C180.342 126.606 184.185 127.297 188.028 127.968C190.519 128.396 193.024 128.779 195.519 129.199C198.794 129.756 202.064 130.341 205.344 130.89C207.312 131.219 209.283 131.485 211.246 131.822C212.944 132.118 214.626 132.48 216.314 132.792C216.85 132.887 217.411 132.88 217.95 132.988C218.352 133.074 218.74 133.28 219.126 133.431C219.092 133.53 219.063 133.621 219.029 133.72C211.673 132.553 204.322 131.378 196.965 130.232C189.6 129.082 182.234 127.952 174.869 126.802C174.835 126.922 174.792 127.037 174.757 127.157C175.002 127.273 175.229 127.442 175.478 127.495C177.289 127.855 179.105 128.227 180.928 128.528C187.645 129.649 194.369 130.741 201.087 131.84C203.911 132.305 206.729 132.798 209.553 133.263C214.702 134.106 219.86 134.934 225.014 135.769C226.044 135.938 227.063 136.144 228.096 136.25C228.371 136.275 228.67 135.95 228.962 135.792C228.725 135.584 228.531 135.261 228.262 135.186C227.208 134.908 226.129 134.712 225.056 134.486L225.062 134.533L225.063 134.512Z" fill="#EEBF27"/>
<path d="M103.673 82.9995C104.682 83.2634 105.165 84.1224 105.785 84.8329C107.538 86.8297 109.287 88.8346 111.045 90.8233C111.542 91.39 111.527 91.7994 110.831 92.2025C108.655 93.4705 106.5 94.7604 104.348 96.063C103.638 96.4905 103.206 96.5167 102.692 95.6939C101.347 93.5402 99.8784 91.4561 98.4613 89.3367C96.9855 87.1309 95.5178 84.9296 94.042 82.7238C92.0616 79.7543 90.0811 76.7848 88.1007 73.8153C84.6128 68.6008 81.1203 63.3946 77.6451 58.1765C74.0207 52.7467 70.4135 47.305 66.8063 41.8634C66.0359 40.6941 65.2782 39.5213 64.5078 38.352C64.5606 38.2959 64.6215 38.2443 64.6743 38.1882C64.8672 38.3602 65.0865 38.5042 65.2494 38.6916C69.4085 43.4139 73.5675 48.1362 77.7047 52.8784C78.0224 53.2487 78.2045 53.7466 78.4394 54.1883C77.715 53.473 76.9906 52.7577 76.279 52.0389C76.1698 52.1384 76.0607 52.238 75.9433 52.333C76.5105 53.0996 77.0341 53.9061 77.6531 54.6374C82.2524 60.0661 86.8563 65.4867 91.4866 70.8792C95.7593 75.8578 100.067 80.8128 104.352 85.7878C105.651 87.2951 106.919 88.8387 108.269 90.3107C108.536 90.5991 109.255 90.8832 109.467 90.734C110.007 90.3614 109.517 89.9372 109.214 89.5969C107.545 87.6793 105.864 85.7653 104.203 83.8522C103.98 83.5993 103.836 83.2831 103.652 82.9985L103.673 82.9995Z" fill="#EEBF27"/>
<path d="M103.672 82.9994C103.855 83.2839 104.008 83.6047 104.222 83.8531C105.887 85.7789 107.565 87.6802 109.234 89.5978C109.528 89.9335 110.019 90.3577 109.487 90.7349C109.275 90.8841 108.556 90.6 108.289 90.3116C106.946 88.8441 105.679 87.3006 104.372 85.7887C100.082 80.8218 95.7743 75.8668 91.5061 70.8801C86.8803 65.4794 82.2765 60.0589 77.6726 54.6383C77.0617 53.9115 76.5382 53.1051 75.9628 52.3339C76.072 52.2343 76.1812 52.1348 76.2985 52.0397C77.0229 52.755 77.7472 53.4703 78.4589 54.1892L78.4481 54.151C79.4961 55.379 80.5569 56.6035 81.6049 57.8315C82.246 58.4467 82.8871 59.0619 83.5282 59.6771C83.91 60.2009 84.2917 60.7247 84.6698 61.2358L84.6545 61.2058C84.697 61.2831 84.7394 61.3603 84.791 61.4213C88.5254 65.735 92.2516 70.0441 96.0032 74.3461C96.1896 74.568 96.5325 74.6633 96.8017 74.8137C96.9109 75.0781 96.9637 75.386 97.1338 75.5988C98.0052 76.6639 98.8894 77.7254 99.8045 78.7507C101.082 80.1817 102.385 81.5847 103.68 83.0039L103.655 82.9902L103.672 82.9994Z" fill="black"/>
<path d="M96.8113 74.8393C96.5421 74.6889 96.2119 74.59 96.0128 74.3717C92.2693 70.0743 88.5349 65.7606 84.8006 61.4469C84.7408 61.3814 84.7111 61.3005 84.6641 61.2314C85.1279 61.6084 85.6653 61.9302 86.0591 62.375C89.5321 66.2751 92.9752 70.1904 96.4137 74.114C96.5884 74.3187 96.6448 74.6392 96.7494 74.9118C96.7712 74.8919 96.793 74.872 96.8067 74.8475L96.8113 74.8393Z" fill="white"/>
<path d="M96.8093 74.8392C96.8093 74.8392 96.7819 74.8881 96.7519 74.9035C97.0166 75.0621 97.3295 75.1727 97.5241 75.3992C98.4872 76.4727 99.4075 77.5652 100.353 78.6505C101.355 79.7885 102.379 80.9066 103.355 82.0728C103.561 82.3165 103.576 82.7105 103.683 83.0376C102.388 81.6183 101.08 80.2235 99.8075 78.7843C98.8924 77.7591 98.0082 76.6975 97.1368 75.6324C96.9667 75.4196 96.9139 75.1118 96.8047 74.8474L96.8093 74.8392Z" fill="white"/>
<path d="M81.6178 57.8485C80.5697 56.6204 79.509 55.396 78.4609 54.168C79.9229 55.0385 80.9963 56.2593 81.6178 57.8485Z" fill="white"/>
<path d="M225.065 134.512L225.059 134.465C224.189 134.375 223.314 134.293 222.444 134.203C222.476 134.049 222.508 133.896 222.536 133.751C223.377 134.007 224.224 134.255 225.065 134.512Z" fill="white"/>
<path d="M219.706 133.371C220.295 133.486 220.888 133.592 221.477 133.707C221.455 133.823 221.433 133.94 221.411 134.056C220.822 133.941 220.229 133.834 219.64 133.719C219.662 133.603 219.684 133.487 219.706 133.371Z" fill="white"/>
<path d="M84.6846 61.253C84.3028 60.7292 83.9211 60.2054 83.543 59.6943C83.9278 60.0593 84.3254 60.4206 84.6839 60.8137C84.7554 60.8965 84.6831 61.1023 84.68 61.2612L84.6846 61.253Z" fill="white"/>
<path d="M201.118 139.779C200.522 140.174 124.923 137.408 123.7 136.992C126.373 136.441 200.206 139.055 201.118 139.779Z" fill="black"/>
<path d="M77.1015 66.64C78.0086 67.9285 78.9377 69.1971 79.8276 70.4973C87.1612 81.2438 94.4948 91.9904 101.811 102.749C106.678 109.901 111.507 117.085 116.344 124.252C116.473 124.442 116.665 124.635 116.689 124.841C116.722 125.031 116.629 125.332 116.478 125.43C116.344 125.516 116.003 125.475 115.879 125.352C115.615 125.097 115.429 124.758 115.218 124.447C106.675 111.708 98.1098 98.9888 89.6094 86.2306C85.4488 79.9978 81.3872 73.7027 77.2828 67.4265C77.1418 67.2192 77.0307 66.9965 76.9069 66.7775C76.9678 66.7259 77.0369 66.6789 77.0933 66.6354L77.1015 66.64Z" fill="black"/>
<path d="M149.856 82.0438C149.715 82.2967 149.585 82.5668 149.427 82.8106C146.506 87.1194 143.64 91.481 140.641 95.736C137.338 100.421 133.93 105.025 130.55 109.656C129.01 111.76 127.438 113.826 125.865 115.913C125.705 116.123 125.568 116.367 125.357 116.496C125.159 116.621 124.87 116.62 124.625 116.676C124.62 116.416 124.509 116.097 124.618 115.922C125.007 115.283 125.469 114.685 125.916 114.078C129.836 108.807 133.78 103.55 137.659 98.2556C141.44 93.0993 145.168 87.903 148.925 82.7331C149.139 82.4459 149.394 82.1815 149.628 81.9161C149.701 81.9571 149.77 82.0063 149.847 82.0601L149.856 82.0438Z" fill="black"/>
<path d="M166.767 71.8397C166.185 73.4948 165.64 75.16 165.02 76.805C162.631 83.1674 160.23 89.5335 157.82 95.8949C155.059 103.173 152.29 110.447 149.52 117.721C149.01 119.074 148.484 120.418 147.97 121.779C147.817 122.186 147.72 122.742 147.143 122.548C146.55 122.345 146.833 121.839 146.981 121.44C149.148 115.8 151.312 110.147 153.487 104.511C155.961 98.1105 158.423 91.7138 160.913 85.3225C162.527 81.1711 164.185 77.0343 165.836 72.893C166.001 72.4822 166.274 72.1098 166.488 71.7264C166.569 71.772 166.668 71.8059 166.754 71.8433L166.767 71.8397Z" fill="black"/>
<path d="M186.002 191.167C185.452 190.849 185.465 191.285 185.339 191.3C186.394 191.75 186.016 191.047 186.002 191.167Z" fill="#58595B"/>
<path d="M192.467 191.707L192.321 191.796C192.534 191.797 192.762 191.85 192.997 191.928C192.817 191.827 192.645 191.752 192.467 191.707Z" fill="#58595B"/>
<path d="M195.445 196.153C195.534 195.956 195.503 195.724 195.418 195.473C195.332 195.244 195.161 194.88 195.028 194.677C194.736 194.204 194.364 193.835 194.178 193.421L194.2 193.208C193.978 193.223 193.755 193.238 193.532 193.274C193.942 193.632 194.34 193.993 194.664 194.485C194.829 194.727 194.955 194.979 195.119 195.338C195.268 195.646 195.393 195.92 195.45 196.144L195.445 196.153Z" fill="#58595B"/>
<path d="M194.969 198.265C194.969 198.265 195.067 198.32 194.8 198.203C194.778 198.223 194.766 198.226 194.74 198.234C194.74 198.234 194.74 198.234 194.736 198.242C194.752 198.251 194.865 198.239 194.961 198.26L194.969 198.265Z" fill="#58595B"/>
<path d="M194.742 198.234C194.742 198.234 194.672 198.205 194.654 198.238C194.632 198.258 194.624 198.253 194.742 198.234Z" fill="#58595B"/>
<path d="M195.602 198.78C195.668 198.967 195.661 198.845 195.412 198.62C195.521 198.713 195.632 198.84 195.643 198.878C195.635 198.873 195.628 198.848 195.635 198.873C195.576 198.787 195.463 198.242 195.482 198.285C195.482 198.285 195.487 198.352 195.519 198.487C195.525 198.534 195.531 198.58 195.549 198.643C195.568 198.686 195.583 198.737 195.597 198.788L195.602 198.78Z" fill="#58595B"/>
<path d="M195.432 198.395C195.432 198.395 195.471 198.363 195.48 198.347C195.484 198.338 195.489 198.33 195.494 198.322C195.494 198.322 195.484 198.263 195.5 198.368L195.484 198.263C195.471 198.267 195.485 198.318 195.427 198.403L195.432 198.395Z" fill="#58595B"/>
<path d="M195.596 198.808C195.723 198.965 195.584 198.887 195.504 198.36C195.521 198.445 195.534 198.517 195.544 198.576C195.562 198.639 195.591 198.741 195.617 198.809C195.575 198.732 195.714 198.981 195.601 198.8L195.596 198.808Z" fill="#58595B"/>
<path d="M195.131 198.398C195.245 198.462 195.445 198.295 195.531 198.621C195.601 198.361 195.436 198.312 195.324 198.302C195.206 198.322 195.119 198.285 195.123 198.394L195.131 198.398Z" fill="#58595B"/>
<path d="M196.197 196.125L196.094 195.467L195.645 195.045C195.868 195.277 196.028 196.255 196.189 196.12L196.197 196.125Z" fill="#58595B"/>
<path d="M191.428 196.768C191.342 196.902 191.76 197.189 191.817 197.392C192.09 197.384 192.453 197.405 192.823 197.451C192.25 197.174 191.46 196.978 191.428 196.768Z" fill="#58595B"/>
<path d="M191.821 197.384C191.386 197.397 190.999 197.438 190.632 197.501C191.594 197.599 191.872 197.562 191.821 197.384Z" fill="#58595B"/>
<path d="M195.352 199.131C195.515 199.051 195.616 198.947 195.624 198.855C195.633 198.839 195.626 198.814 195.619 198.788L195.645 198.856C195.645 198.856 195.637 198.852 195.593 198.795C195.629 198.847 195.633 198.839 195.648 198.869C195.657 198.874 195.637 198.852 195.637 198.852L195.611 198.784L195.614 198.796C195.605 198.813 195.612 198.838 195.599 198.863C195.544 198.96 195.372 199.057 195.143 199.122L195.352 199.131Z" fill="#58595B"/>
<path d="M185.894 202.495C185.611 202.102 185.404 201.611 185.294 201.175C185.188 200.752 185.157 200.328 185.141 200.051C185.142 200.565 185.219 201.443 185.68 202.247C186.132 203.046 186.774 203.469 187.086 203.6C186.817 203.45 186.325 203.143 185.902 202.5L185.894 202.495Z" fill="#58595B"/>
<path d="M187.657 204.359C187.428 204.252 187.403 204.431 187.41 204.628C187.426 204.829 187.47 205.057 187.216 204.841C187.358 205.027 187.557 205.266 187.785 205.49C187.982 205.654 188.145 205.745 188.258 205.755C188.316 205.766 188.354 205.755 188.392 205.744C188.392 205.744 188.41 205.732 188.422 205.729L188.573 205.631C188.427 205.721 188.47 205.702 188.449 205.701C188.441 205.696 188.416 205.682 188.388 205.656C188.336 205.595 188.239 205.444 188.102 205.229C187.894 204.931 187.742 204.61 187.657 204.359Z" fill="#58595B"/>
<path d="M190.304 203.815C190.471 204.015 190.596 204.117 190.681 204.176L188.664 205.543C188.664 205.543 188.614 205.557 188.703 205.532L188.809 205.495C188.864 205.473 188.839 205.48 188.762 205.522C188.834 205.488 188.877 205.469 188.813 205.487L188.614 205.557L190.681 204.176C190.604 204.122 190.479 204.02 190.304 203.815Z" fill="#58595B"/>
<path d="M187.875 197.78C187.74 197.811 187.527 197.81 187.109 198.058C186.71 198.274 186.094 198.936 185.867 199.784C186.088 199.426 186.378 199.041 186.774 198.717C187.033 198.348 187.46 197.987 187.871 197.788L187.875 197.78Z" fill="#58595B"/>
<path d="M186.819 198.676L186.78 198.708C186.319 199.36 186.24 199.905 186.184 200.216C186.126 200.569 186.149 200.967 186.188 201.204C186.152 201.001 186.122 200.652 186.173 200.274C186.229 199.963 186.266 199.437 186.811 198.672L186.819 198.676Z" fill="#58595B"/>
<path d="M188.163 197.651C188.052 197.696 187.98 197.73 187.877 197.78C188.003 197.765 188.067 197.747 188.163 197.651Z" fill="#58595B"/>
<path d="M193.106 199.301C193.131 199.218 193.152 199.123 193.21 198.962C193.244 198.863 193.286 198.769 193.319 198.67C193.352 198.592 193.347 198.621 193.347 198.621C193.347 198.621 193.274 198.656 193.134 198.62C192.906 198.567 192.677 198.536 192.513 198.562C192.202 198.581 192.106 198.677 192.401 198.896C192.478 198.949 192.575 199.025 192.708 199.132C192.99 199.107 192.975 198.981 193.022 198.857C193.054 198.8 193.086 198.743 193.196 198.719C193.247 198.705 193.289 198.686 193.324 198.662C193.329 198.654 193.333 198.646 193.338 198.638C193.338 198.638 193.342 198.629 193.347 198.621L193.281 198.777C193.195 199.008 193.146 199.173 193.111 199.292L193.106 199.301Z" fill="#58595B"/>
<path d="M189.314 197.908C189.904 197.906 190.185 197.978 190.547 198.02C190.531 197.914 190.346 197.747 190.656 197.652C190.238 197.729 189.943 197.778 189.318 197.9L189.314 197.908Z" fill="#58595B"/>
<path d="M188.315 198.26C188.701 198.048 189.035 197.967 189.311 197.896C189.106 197.899 188.845 197.925 188.549 197.995C188.47 198.079 188.395 198.155 188.32 198.252L188.315 198.26Z" fill="#58595B"/>
<path d="M188.844 205.033C189.232 205.239 189.248 205.248 189.311 205.347C189.327 205.26 189.345 205.228 189.296 205.125C189.254 205.027 189.112 204.84 188.922 204.606C188.897 204.613 188.868 204.607 188.834 204.61C188.718 204.588 188.584 204.578 188.66 204.748C188.678 204.812 188.741 204.911 188.836 205.028L188.844 205.033Z" fill="#58595B"/>
<path d="M187.831 203.471L187.863 203.488C187.877 203.444 187.87 203.419 187.831 203.471Z" fill="#58595B"/>
<path d="M185.966 205.599L186.082 205.621L186.069 205.549L185.966 205.599Z" fill="#58595B"/>
<path d="M188.903 204.467C188.553 203.886 188.364 203.726 188.143 203.624C188.31 203.803 188.526 204.127 188.89 204.566C188.907 204.576 188.918 204.593 188.922 204.606C188.981 204.596 189.011 204.58 188.951 204.515C188.943 204.51 188.923 204.488 188.903 204.467Z" fill="#58595B"/>
<path d="M188.37 203.718C188.37 203.718 188.481 203.673 188.553 203.639C188.643 203.593 188.738 203.538 188.828 203.492C189.012 203.392 189.221 203.305 189.43 203.219C189.056 203.256 188.285 203.639 188.37 203.718Z" fill="#58595B"/>
<path d="M187.825 203.597C187.825 203.597 187.809 203.588 187.796 203.591C187.767 203.682 187.785 203.649 187.825 203.597Z" fill="#58595B"/>
<path d="M187.826 203.597C187.913 203.614 188.027 203.602 188.148 203.616C188.055 203.532 187.969 203.495 187.877 203.487C187.872 203.516 187.853 203.569 187.835 203.602L187.826 203.597Z" fill="#58595B"/>
<path d="M185.763 208.556C185.742 208.362 185.972 208.105 186.297 207.848C186.61 207.595 187.078 207.332 187.596 207.268C188.294 206.555 187.17 205.788 186.086 205.621C186.116 205.702 186.142 205.77 186.072 205.913C185.999 206.044 185.792 206.281 185.551 206.521C185.633 206.546 185.772 206.527 185.949 206.498C186.161 206.445 186.402 206.376 186.613 206.344C187.035 206.259 187.328 206.272 187.048 206.619C185.99 207.441 186.08 207.031 185.513 207.068C185.809 207.19 185.565 207.492 185.233 207.799C184.909 208.111 184.465 208.387 184.664 208.702C185.043 208.56 185.398 208.384 185.725 208.182C185.792 208.273 185.431 208.574 185.775 208.552L185.763 208.556Z" fill="#58595B"/>
<path d="M187.775 204.703L188.117 204.455C187.673 204.636 187.312 204.669 186.627 204.726C186.111 205.229 186.048 205.419 186.071 205.549L187.885 204.583L187.788 204.7L187.775 204.703Z" fill="#58595B"/>
<path d="M189.475 203.481C189.422 203.633 189.305 203.803 189.197 203.978C189.146 204.068 189.096 204.158 189.046 204.247C189.005 204.321 188.99 204.387 188.974 204.453C188.93 204.686 188.951 204.858 189.307 204.854C189.796 204.399 190.121 204.163 190.144 204.026C190.177 203.948 190.184 203.877 190.192 203.806C190.202 203.769 190.199 203.736 190.197 203.702C190.197 203.702 190.186 203.664 190.19 203.677C190.273 203.777 190.364 203.881 190.424 203.947C190.364 203.881 190.313 203.82 190.256 203.768L190.17 203.655C190.17 203.655 190.161 203.65 190.153 203.646C190.153 203.646 190.144 203.662 190.14 203.67C190.105 203.694 190.07 203.717 190.036 203.741C189.959 203.783 189.886 203.817 189.856 203.833C189.784 203.846 189.863 203.762 189.914 203.672C189.964 203.583 189.997 203.505 189.966 203.445C189.951 203.415 189.926 203.401 189.876 203.394C189.809 203.4 189.759 203.393 189.516 203.503C189.754 203.326 189.837 203.255 189.855 203.222C189.855 203.222 189.831 203.187 189.898 203.278L190.079 203.529C190.209 203.698 190.273 203.777 190.364 203.881C190.428 203.96 190.504 204.034 190.556 204.074L190.629 204.136L190.553 204.062C190.513 204.018 190.42 203.934 190.357 203.856C190.257 203.747 190.19 203.656 190.052 203.482L189.796 203.136C189.796 203.136 189.649 203.15 189.436 203.224C189.462 203.216 189.487 203.209 189.508 203.21C189.617 203.207 189.654 203.217 189.552 203.246C189.552 203.246 189.531 203.266 189.513 203.277C189.523 203.336 189.495 203.406 189.475 203.481C188.686 203.896 189.291 203.464 189.513 203.277C189.514 203.256 189.515 203.236 189.508 203.21C189.318 203.34 189.106 203.489 188.932 203.648C188.727 203.823 188.608 203.96 188.528 204.044C188.432 204.14 188.409 204.18 188.374 204.225C188.346 204.274 188.294 204.309 188.246 204.357L188.116 204.456C188.116 204.456 188.202 204.418 188.262 204.387C188.338 204.365 188.419 204.336 188.506 204.256C188.593 204.176 188.689 204.101 188.798 204.002C188.973 203.842 189.212 203.644 189.475 203.481Z" fill="#58595B"/>
<path d="M191.355 199.659C191.303 199.619 191.308 199.59 191.306 199.556C191.17 199.588 191.123 199.615 191.355 199.659Z" fill="#58595B"/>
<path d="M190.573 199.33C190.718 199.282 190.85 199.121 191.327 199.227C191.728 199.408 191.297 199.414 191.295 199.552C191.57 199.481 192.383 199.464 191.471 199.083L191.315 199.113C190.907 198.981 190.451 198.802 190.128 198.632C189.81 198.454 189.481 198.334 189.574 198.301C189.889 198.659 190.056 198.934 190.561 199.313L190.573 199.33Z" fill="#58595B"/>
<path d="M188.748 202.753C188.893 202.876 188.985 202.96 189.163 203.178C189.322 203.373 189.52 203.612 189.76 203.853L189.801 203.876L189.782 203.834C189.655 203.506 189.597 203.206 189.551 202.944L189.393 203.092C189.017 202.367 188.92 202.731 188.743 202.761L188.748 202.753Z" fill="#58595B"/>
<path d="M185.703 205.516L185.684 205.034L185.41 205.524C185.362 205.668 185.339 205.805 185.291 205.928C185.397 205.816 185.486 205.695 185.7 205.504L185.703 205.516Z" fill="#58595B"/>
<path d="M184.467 206.1L184.426 205.734C184.342 205.826 184.254 205.927 184.154 206.01C184.261 206.048 184.364 206.074 184.467 206.1Z" fill="#58595B"/>
<path d="M83.4118 160.576L82.9538 160.437C83.1678 160.514 83.3038 160.558 83.4118 160.576Z" fill="#58595B"/>
<path d="M86.3868 162.261L86.5468 162.147C86.358 162.159 86.2644 162.192 86.3868 162.261Z" fill="#58595B"/>
<path d="M139.276 189.57C138.854 188.927 138.404 188.065 138.285 188.47L138.285 188.93C138.754 189.106 139.053 189.338 139.285 189.574L139.276 189.57Z" fill="#58595B"/>
<path d="M107.175 178.278C107.214 178.343 107.261 178.412 107.295 178.485C107.511 178.444 107.709 178.395 107.879 178.34C107.671 178.33 107.425 178.311 107.175 178.278Z" fill="#58595B"/>
<path d="M105.92 179.493L105.266 178.806C105.391 178.983 105.59 179.201 105.92 179.493Z" fill="#58595B"/>
<path d="M67.6397 150.232C67.4346 150.235 67.2331 150.25 67.0397 150.271C67.5642 150.692 67.467 150.349 67.6397 150.232Z" fill="#58595B"/>
<path d="M164.597 202.403C164.065 202.149 163.612 202.002 163.193 201.908C163.871 202.265 164.353 202.706 164.597 202.403Z" fill="#58595B"/>
<path d="M86.6715 157.462C86.3822 157.386 86.2351 157.4 86.2022 157.478C86.4952 157.567 86.6831 157.575 86.6715 157.462Z" fill="#58595B"/>
<path d="M161.421 201.633C161.527 201.693 161.639 201.723 161.741 201.77C162.214 201.766 162.673 201.787 163.203 201.912C162.709 201.647 162.087 201.438 161.421 201.633Z" fill="#58595B"/>
<path d="M32.9161 122.369C32.8935 122.313 32.8419 122.252 32.8194 122.197C32.744 122.198 32.8119 122.268 32.9161 122.369Z" fill="#58595B"/>
<path d="M48.1385 117.869C47.936 117.906 47.6082 117.937 47.3059 117.96C47.4556 117.98 47.6908 117.961 48.1385 117.869Z" fill="#58595B"/>
<path d="M177.394 205.079C177.471 205.057 177.793 205.152 177.394 205.079V205.079Z" fill="#58595B"/>
<path d="M179.05 207.076C178.949 207.105 178.863 207.143 178.834 207.233C178.884 207.144 178.966 207.093 179.05 207.076Z" fill="#58595B"/>
<path d="M156.763 203.398C156.763 203.398 156.747 203.389 156.73 203.38C156.825 203.497 156.814 203.48 156.763 203.398Z" fill="#58595B"/>
<path d="M177.933 205.401C177.803 205.328 177.648 205.241 177.467 205.162C177.541 205.203 177.688 205.285 177.933 205.401Z" fill="#58595B"/>
<path d="M177.9 205.19C178.024 205.238 178.123 205.271 178.213 205.301C178.266 205.245 178.247 205.202 177.9 205.19Z" fill="#58595B"/>
<path d="M176.837 204.949C177.072 205.006 177.278 205.078 177.475 205.167C177.402 205.126 177.378 205.091 177.404 205.084C177.287 205.062 177.118 205.021 176.84 204.962L176.837 204.949Z" fill="#58595B"/>
<path d="M39.7441 138.946C39.7441 138.946 39.6961 138.897 39.6807 138.867C39.2116 138.787 39.3921 138.867 39.7441 138.946Z" fill="#58595B"/>
<path d="M126.271 189.645C126.271 189.645 126.311 189.668 126.331 189.69C126.316 189.66 126.301 189.63 126.285 189.6L126.267 189.632L126.271 189.645Z" fill="#58595B"/>
<path d="M124.996 188.152C125.324 188.196 125.512 188.301 125.751 188.66C125.959 188.958 126.1 189.261 126.285 189.6C126.411 189.125 126.583 188.664 126.798 188.26C126.498 188.242 126.143 188.13 125.843 188.112C125.551 188.098 125.254 188.093 124.991 188.16L124.996 188.152Z" fill="#58595B"/>
<path d="M76.2276 156.648L77.0196 157.529C75.5378 157.365 74.787 156.678 75.449 157.658C76.223 156.656 79.3197 159.735 80.0702 158.699L80.5825 159.295C80.3994 159.182 80.3385 159.234 80.1599 159.113C81.1118 160.341 81.5367 158.833 83.049 159.882C83.5582 160.273 83.8586 160.655 83.4104 160.576L84.8054 160.992C85.1507 161.217 84.9561 161.354 84.6062 161.137L86.5735 162.119L86.5389 162.142C86.912 162.126 87.6825 162.203 88.0482 162.258C88.4546 162.699 87.7396 162.235 87.7926 162.447C88.1936 162.553 88.5854 162.676 89.0871 162.774C89.2843 163.034 89.0998 163.135 88.7169 163.092C88.2886 163.035 87.9195 162.871 87.5371 162.636C87.8888 164.267 88.7596 163.073 90.9418 164.475C90.5553 164.419 90.1524 164.355 89.7169 164.272C90.2882 165.223 91.3802 165.223 92.0954 165.954C92.0477 165.81 91.6657 165.382 91.3408 164.987C91.0159 164.591 90.8653 164.228 91.5251 164.254C91.8341 164.449 92.2449 164.614 92.8532 164.579C92.7437 164.775 92.9285 164.942 92.9801 165.003C93.0561 165.078 93.2059 165.097 93.339 165.204L92.905 165.636C93.1672 165.665 93.4055 165.487 93.7412 165.557C93.751 165.616 93.7536 165.65 93.7589 165.717C93.7678 165.797 93.7685 165.872 93.7611 165.943C93.7498 166.097 93.7104 166.225 93.6593 166.336C93.5525 166.565 93.3652 166.728 93.2149 166.901C93.6389 168.69 93.5545 165.431 94.3062 167.554C94.7047 169.35 95.65 170.264 97.045 171.407C97.5547 172.335 96.6472 171.506 96.7588 171.901C97.0789 172.037 97.3953 172.16 97.7164 172.275C97.8548 172.449 97.6941 172.487 97.6178 172.509C98.2466 172.935 98.1106 172.164 98.9928 172.903C99.3326 172.793 99.5562 173.389 99.8105 174.045C100.057 174.696 100.423 175.554 101.244 175.906C101.388 176.318 100.841 176.013 100.751 176.251C101.718 176.953 102.21 177.184 102.595 177.357C103.006 177.522 103.385 177.648 104.282 177.807C104.633 178.174 104.986 178.5 105.268 178.819C104.672 177.95 105.979 178.102 107.18 178.291C106.974 177.931 106.817 177.618 106.691 177.441C107.251 177.646 107.799 177.835 108.333 177.951C108.476 178.117 108.253 178.249 107.892 178.358C108.017 178.363 108.147 178.361 108.235 178.357C108.721 178.789 108.322 179.005 107.744 179.121C107.577 178.921 107.436 178.713 107.308 178.502C106.742 178.614 106.175 178.747 106.076 179.098C106.213 179.101 106.445 179.166 106.691 179.261C106.535 179.291 106.429 179.328 106.446 179.412C106.471 179.501 106.714 179.488 107.066 179.491C107.1 179.756 107.15 180.031 107.204 180.297L107.418 180.106C108.195 180.593 109.006 180.961 109.773 181.293C110.245 181.236 110.692 181.143 111.132 181.046C111.534 180.939 112.132 180.866 112.607 180.725C113.59 180.461 114.509 180.118 115.816 180.538C115.031 180.774 115.403 181.239 115.178 181.776C115.049 181.565 114.867 181.431 114.682 181.36C114.489 181.284 114.329 181.302 114.073 181.32C113.586 181.368 112.938 181.531 112.138 181.373C112.938 181.531 112.726 181.776 112.521 181.855C113.455 181.756 114.111 181.597 114.646 181.597C114.472 182.024 114.813 182.065 115.695 182.536C115.569 182.263 115.75 182.15 115.917 182.082C116.07 182.018 116.304 182.021 116.574 182.075C117.113 182.183 117.779 182.523 118.268 182.625C118.174 182.947 117.809 183.065 116.894 182.575C117.609 183.67 118.789 182.306 119.647 183.471C119.386 183.325 119.27 183.207 119.095 183.291C119.814 183.404 121.248 184.419 120.765 184.46L120.504 184.314C121.362 184.847 122.659 185.497 123.676 186.033C124.697 186.561 125.461 187.052 125.849 186.894C125.787 186.967 124.99 187.378 124.82 187.433C125.48 187.459 126.041 187.451 126.725 187.78C127.437 188.135 128.043 188.313 128.654 188.216C128.352 188.432 128.134 189.07 127.923 189.563C127.807 189.808 127.663 190.028 127.404 190.108C127.158 190.184 126.792 190.13 126.347 189.72C126.518 190.009 126.729 190.319 127.072 190.607C127.414 190.895 127.922 191.136 128.589 191.187C128.664 191.187 128.748 191.19 128.844 191.191C128.774 191.162 128.697 191.109 128.633 191.051C128.293 190.701 128.261 190.03 128.693 190.1C128.794 190.189 128.894 190.277 128.859 190.321C129.374 190.663 129.652 190.722 129.967 190.791C130.133 190.819 130.32 190.849 130.577 190.886C130.715 190.909 130.864 190.928 131.043 190.953C131.184 190.989 131.337 191.021 131.502 191.07C131.016 191.002 131.395 189.844 132.079 189.808C131.988 189.971 132.19 190.855 132 190.984C132.401 190.631 132.7 190.305 133.239 190.146C133.29 190.132 133.341 190.117 133.4 190.107C133.312 190.112 133.26 190.147 133.224 190.191C133.132 190.279 133.105 190.424 133.089 190.587C133.061 190.828 133.165 191.122 133.272 191.332C133.189 191.06 134.589 191.907 135.055 192.05L134.503 191.505C136.184 192.52 136.98 191.134 138.771 192.22C138.606 192.246 138.304 192.463 138.144 192.748C137.984 193.034 138.013 193.403 138.348 193.686C138.658 193.571 139.424 193.292 140.385 193.24C141.329 193.179 142.439 193.339 143.254 193.795L143.317 194.258C143.746 194.487 144.167 194.69 144.585 194.881C143.448 195.038 140.378 194.478 139.042 194.321C139.453 194.946 138.966 194.706 139.818 195.386C139.917 195.859 139.072 195.322 138.84 195.161C139.426 195.702 140.025 196.336 140.688 197.007C140.843 196.73 141.359 196.975 141.887 197.238C142.415 197.501 142.968 197.756 143.084 197.51C142.085 197.017 141.157 196.455 140.288 195.98C140.624 195.398 142.704 195.853 144.289 197.135C144.579 197.65 143.324 197.827 143.224 198.006C143.62 198.046 145.072 198.761 145.158 198.991L144.254 198.807C145.078 199.631 146.245 199.095 147.077 200.288C147.449 200.56 147.862 201.68 148.118 201.394C147.816 200.402 148.812 198.41 149.504 198.187C149.599 198.304 151.23 199.944 151.501 200.513C151.86 201.366 149.871 201.111 150.176 201.849C150.283 201.716 150.742 201.737 150.921 201.762C151.264 202.125 150.473 202.122 151.427 202.58C151.879 202.116 153.318 203.68 152.128 202.361C153.112 202.687 153.08 203.033 154.18 203.497C154.004 202.95 155.731 202.694 156.705 202.906C156.59 203.035 156.715 203.309 156.789 203.446C158.742 204.184 159.921 204.297 161.767 204.633C161.914 204.811 162.793 205.153 162.362 205.351C162.645 205.284 162.933 205.113 163.523 205.207C164.564 205.95 162.204 205.059 162.953 205.863C163.086 205.509 164.558 205.636 165.454 205.526C165.272 204.932 163.515 205.107 162.65 205.18C162.766 204.378 164.416 203.897 166.355 203.76C167.954 203.733 166.993 204.342 167.278 204.255C168.779 204.462 169.665 204.465 170.249 204.32C170.882 204.203 171.422 204.119 172.51 204.738C173.304 205.502 172.286 205.715 172.396 206.13C171.099 205.941 170.575 205.251 169.736 205.029L170.698 205.567C170.249 205.605 169.389 205.477 168.966 205.198C169.636 205.84 173.805 206.789 175.937 207.745C176.382 207.694 177.114 207.707 176.834 207.422L176.107 207.305C175.577 206.741 177.572 207.117 176.734 206.702C177.22 206.674 177.74 206.644 178.302 206.615C178.926 206.61 179.549 206.702 180.182 206.948L180.313 207.557C180.321 207.39 179.521 207.039 179.086 207.128C179.703 207.002 181.009 208.342 181.698 207.646C181.413 207.486 181.141 207.302 180.869 207.118C181.353 207.057 181.866 206.905 182.341 206.763C182.9 206.626 183.423 206.533 183.889 206.579C183.433 206.035 183.688 206.67 182.958 206.005C183.111 206.209 183.031 206.314 182.816 206.354C182.601 206.394 182.233 206.382 181.984 206.349C181.417 206.29 180.8 206.169 181.269 206.689C180.607 205.805 179.966 206.089 178.869 205.198C178.869 205.294 178.956 205.407 178.921 205.451C178.907 205.476 178.848 205.485 178.732 205.463C178.595 205.44 178.441 205.408 178.244 205.341C178.195 205.389 178.085 205.434 178.016 205.46C177.992 205.446 177.984 205.442 177.959 205.428L178.008 205.455C178.008 205.455 177.957 205.49 178.02 205.472C178.215 205.603 178.36 205.727 178.409 205.85C177.907 206.212 176.386 205.791 175.773 205.854C175.194 205.606 176.076 205.714 175.804 205.433L174.887 205.542C174.865 205.122 173.512 204.42 174.923 204.577L173.719 204.204C173.074 203.768 172.142 203.386 171.494 203.377C170.961 203.123 169.932 203.394 170.517 203.228L170.027 203.147C169.808 203.099 169.584 203.06 169.368 203.024C168.931 202.963 168.51 202.931 168.113 202.912L168.11 202.803C167.533 202.706 166.989 202.702 166.508 202.701C166.048 202.7 165.546 202.698 165.046 202.654C164.021 202.574 162.943 202.357 161.776 201.801C161.053 201.793 160.208 201.867 159.24 201.626L159.103 201.239C158.73 201.255 158.279 201.067 157.956 200.897C157.617 200.718 157.2 200.507 156.974 200.605C156.879 200.295 156.624 200.024 156.21 199.75C156.104 199.691 155.986 199.614 155.859 199.554C155.745 199.49 155.626 199.435 155.499 199.374C155.302 199.286 155.097 199.193 154.892 199.1C154.036 198.717 152.941 198.223 152.285 197.75L151.996 198.134C151.055 197.576 150.154 197.233 148.959 196.747L148.811 197.146C148.252 197.016 147.686 196.593 147.086 196.075C146.495 195.563 145.845 194.964 145.25 194.535C145.432 194.476 145.713 194.74 145.882 194.974C145.019 193.261 142.358 192.737 140.964 190.92C140.437 190.732 140.086 190.461 139.831 190.19C139.871 190.213 139.904 190.231 139.946 190.233C139.897 190.205 139.84 190.174 139.774 190.137C139.631 189.972 139.485 189.793 139.309 189.609C139.438 189.799 139.561 189.964 139.685 190.087C139.367 189.909 138.846 189.672 138.298 189.483L138.305 188.973C138.264 188.951 138.232 188.932 138.186 188.918C137.771 188.493 137.682 188.882 137.787 189.326C137.497 189.25 137.223 189.204 136.989 189.202C136.916 188.336 135.53 188.729 135.231 187.769C135.036 187.831 134.663 187.752 134.116 187.639C133.512 187.494 132.759 187.48 132.23 187.623C131.705 187.758 131.389 187.977 131.322 188.251C131.293 188.149 131.102 188.127 131.422 188.071C131.105 188.065 130.719 188.085 130.538 188.102C130.345 188.122 130.162 188.18 129.96 188.293C129.927 188.103 129.911 187.901 129.899 187.712C129.816 187.784 129.726 187.851 129.635 187.918C129.393 188.082 129.09 188.202 128.801 188.222C128.662 187.877 128.653 187.605 128.727 187.453C128.806 187.294 128.966 187.255 129.236 187.213C128.969 187.193 128.794 187.084 128.673 186.995C128.54 186.888 128.491 186.861 128.341 186.67C128.214 186.514 128.087 186.357 127.863 186.146C127.618 185.913 127.33 185.72 126.884 185.503L127.215 185.313C126.716 184.788 125.581 184.539 125.447 184.089C125.067 183.352 123.485 182.447 121.863 181.594C121.076 181.165 120.225 180.636 119.296 180.096C118.836 179.828 118.342 179.562 117.847 179.318C117.598 179.189 117.347 179.081 117.089 178.969C116.966 178.921 116.839 178.861 116.715 178.814L116.536 178.713C116.581 179.284 116.409 179.113 115.98 178.788C115.762 178.623 115.445 178.425 115.118 178.339C114.812 178.253 114.61 178.29 114.53 178.491C114.33 178.198 113.775 177.984 114.471 177.849C113.384 177.84 112.845 177.732 112.461 177.614L112.333 177.575L112.127 177.523C111.994 177.492 111.853 177.477 111.719 177.467C111.448 177.454 111.166 177.479 110.847 177.59C110.723 177.296 111.275 177.304 111.145 177.114C111.002 177.141 110.597 177.214 110.48 177.021C110.372 176.832 110.747 176.87 111.021 176.82C110.233 176.658 109.816 176.735 109.497 176.942C109.178 177.149 108.982 177.479 108.795 177.814C108.196 177.2 107.889 177.061 107.077 177.153C106.931 176.782 106.626 176.312 107.596 176.779C107.475 176.69 107.219 176.515 106.899 176.304C106.736 176.192 106.55 176.066 106.342 175.939C106.163 175.839 105.992 175.722 105.817 175.614C105.125 175.206 104.548 174.84 104.341 175.057C104.293 174.837 103.791 174.546 103.652 174.489C102.832 173.581 102.839 173.414 101.904 172.367L102.084 172.735C101.183 172.757 101.196 171.929 100.391 171.168L100.467 171.146C99.8106 170.041 99.6167 169.89 99.4066 169.73C99.2172 169.57 98.9744 169.392 98.5687 168.298L98.2719 168.657C97.8112 168.849 97.6183 168.313 97.5156 167.634C97.3921 166.955 97.5 166.245 97.1061 165.532L97.0084 166.109C96.7315 165.762 96.9336 165.189 97.0336 164.378C97.1311 163.533 97.0075 162.49 96.5694 162.01C96.4221 161.756 96.9955 162.205 97.2616 162.514C96.8633 161.714 96.4456 161.427 96.2335 161.308C96.0087 161.193 95.9259 161.265 95.8549 161.353C95.7154 161.565 95.6204 161.811 94.5685 161.395C94.3663 160.971 95.3107 160.814 94.1256 160.291C93.873 160.053 92.9327 160.031 92.084 160.017C91.6538 160.001 91.2327 159.969 90.8771 159.878C90.6993 159.832 90.5433 159.766 90.4092 159.681C90.2914 159.604 90.1791 159.498 90.0488 159.329C90.1282 159.513 90.1995 159.692 90.1611 159.799C90.1309 159.91 90.0227 159.989 89.6635 159.885C88.6843 159.434 87.5823 157.651 86.3147 157.831C86.2242 157.706 86.2072 157.621 86.2345 157.572C85.4046 157.333 83.6801 156.53 83.0345 156.651C83.105 154.935 78.1186 154.739 78.8533 153.501L76.6181 152.252L76.7472 152.174C75.4006 151.25 74.7408 151.224 74.0637 151.21C73.7885 150.917 74.0961 150.96 74.1652 150.913C72.9785 149.972 72.8474 149.727 72.4614 149.479C72.1046 149.141 71.659 148.731 70.8533 148.238C70.9109 148.077 70.9649 147.904 71.0143 147.739C70.6544 147.559 70.0918 146.785 69.1136 145.949C68.8636 145.745 68.5891 145.527 68.28 145.333C68.1169 145.242 67.971 145.139 67.7824 145.055C67.5703 144.937 67.3563 144.86 67.1295 144.787C66.6679 144.636 66.206 144.581 65.8674 144.574C65.479 144.56 65.3146 144.586 65.054 144.612C65.0814 144.563 65.1351 144.486 65.2877 144.442C64.7656 144.515 64.1262 144.318 63.3471 144.065C62.539 143.806 61.7427 143.564 61.0351 143.393C59.5945 143.059 58.5764 142.908 57.9981 143.655C57.7085 143.676 57.4688 143.702 57.1466 143.704C56.8117 143.71 56.493 143.724 56.1698 143.747C58.5294 144.295 55.6926 144.39 56.6173 144.843C55.7206 144.781 54.3791 144.02 55.4855 144.071L55.6568 144.167C55.9138 143.765 55.1935 143.598 54.4886 143.46C53.7755 143.319 53.1351 143.143 53.2529 142.856C52.4057 142.628 51.4721 142.096 50.4586 141.572C49.4904 141.063 48.5405 140.522 47.6115 139.981C45.7625 138.884 43.9426 137.792 42.1589 136.731L42.2421 137.559L41.005 136.803C40.7607 136.474 40.8371 136.088 41.7116 136.631C41.4381 136.028 40.0529 136.036 39.9555 136.152C38.3657 134.879 41.0437 135.872 40.5153 135.534L39.7674 135.148L39.8896 135.313C39.1709 135.2 38.9353 135.411 37.9448 134.75C37.4242 134.245 37.8863 134.204 37.6852 134.027C37.708 133.986 37.6565 133.926 37.4036 133.784C37.0458 133.466 36.8558 133.232 36.5991 132.81C36.5974 133.12 36.5052 133.304 36.5009 133.579C36.3577 133.51 36.2372 133.4 36.1331 133.299C36.01 133.155 35.8996 133.008 35.8353 132.951C35.7674 132.881 35.7302 132.87 35.682 132.918C35.6338 132.966 35.5954 133.073 35.5875 133.337C35.5877 133.24 35.5843 133.132 35.5764 133.031C35.5702 132.984 35.5685 132.93 35.574 132.901C35.5832 132.885 35.576 132.859 35.5923 132.868C35.7158 132.82 35.3279 132.977 35.2679 133.008C34.7335 133.256 34.608 132.982 34.9223 133.243C35.0274 133.323 35.2897 133.716 35.4017 133.918C35.4017 133.918 35.4562 133.916 35.5025 133.91C36.0011 133.803 36.7603 133.671 37.5958 133.517C38.0008 133.443 38.5039 133.329 38.86 133.228C39.2197 133.14 39.5585 133.051 39.8709 132.99C40.1161 132.934 40.6056 132.844 40.9043 132.807C41.2285 132.764 41.4845 132.746 41.6387 132.757C42.3521 132.439 43.0786 132.288 43.8153 132.1C44.5437 131.908 45.2367 131.76 45.9361 131.562C45.4576 131.594 44.578 131.252 45.824 130.996C46.3123 131.387 47.0014 131.322 47.6843 130.847C48.3789 130.39 48.9831 129.443 49.345 128.853C49.1991 129.114 49.1396 128.952 49.0314 128.667C48.9196 128.369 48.6825 128.065 48.4191 127.789C47.9013 127.222 47.1462 126.81 47.1078 127.281C46.4631 126.653 47.7016 127.196 47.5061 126.626C47.2124 126.462 46.9197 126.277 46.6224 126.1C45.9698 125.735 45.2329 125.291 44.457 124.879C43.681 124.467 42.9634 123.97 42.1622 123.468C41.5895 123.095 41.0086 122.717 40.4241 122.326C40.1477 122.15 39.8749 121.987 39.573 121.818L39.1815 121.599L38.9593 121.518C38.8201 121.633 38.9463 121.982 38.448 121.992C38.3354 121.619 38.3254 121.292 38.4295 121.029C38.2807 120.989 37.9755 121.075 37.6986 121.092C37.4345 121.105 37.1787 121.026 37.3546 120.749C37.2209 120.835 37.0498 121.007 36.7888 120.861C36.5909 120.526 36.4229 120.175 36.3277 119.79C36.2864 119.596 36.2578 119.398 36.242 119.196C36.2216 119.003 36.2576 118.766 36.4349 118.64C37.154 118.196 37.9763 118.238 38.8197 118.185C39.2473 118.167 39.6516 118.018 40.2507 118C40.8825 118 41.6747 118.057 42.4253 118.113C43.1967 118.169 43.9926 118.239 44.8448 118.266L45.4883 118.283C45.6889 118.288 45.8223 118.298 46.0011 118.323C46.3341 118.359 46.6789 118.413 47.0482 118.48C46.2655 118.214 46.754 118.144 47.3587 118.097C46.9594 118.045 47.3397 117.69 47.2449 117.477C48.0833 117.624 48.9715 117.778 49.9709 117.79C50.1669 117.439 50.8654 117.262 51.4713 117.098C52.0817 116.925 52.5839 116.831 52.64 116.52C52.4193 116.589 52.2021 116.671 51.9677 116.765C52.3564 116.318 51.9651 116.003 51.3967 115.718C50.8364 115.437 50.1545 115.163 50.1293 114.71C49.6741 115.237 48.9402 115.094 48.1119 114.91C47.2999 114.735 46.2956 114.559 45.3053 115.258C44.8173 115.135 45.6638 114.923 45.3874 114.747C45.1136 114.969 44.9099 115.122 44.6174 115.205C44.3168 115.283 43.9319 115.283 43.4292 115.205L43.5384 115.105C42.8339 115.14 42.195 115.115 41.5942 115.079C40.9598 115.045 40.5044 114.941 39.6629 114.952C39.4659 114.96 39.3488 114.959 39.1264 114.974C38.9121 114.993 38.6979 115.013 38.4718 115.015C38.0198 115.019 37.5152 114.983 36.9888 114.967C35.9395 114.948 34.8629 114.978 33.8338 115.249C34.0768 115.331 34.3072 115.417 34.5493 115.52C33.6675 115.681 33.3906 115.697 32.9429 115.79C32.8855 116.218 33.3546 115.934 33.9278 115.751C34.5011 115.568 35.1611 115.498 35.0639 115.883C34.585 115.744 33.9768 115.779 33.3853 115.994C32.8183 116.223 32.1986 116.508 31.8672 117.255C31.603 117.996 31.7537 118.722 31.8022 119.306C31.8842 119.887 31.9403 120.304 31.751 120.508C32.0562 121.15 32.1872 121.031 32.2628 120.934C32.3557 120.825 32.4303 120.749 32.8147 121.306L32.7312 121.666C32.937 121.739 33.152 121.795 33.3543 121.854C33.9045 122.536 33.9867 123.021 33.7749 123.17C33.612 122.983 33.1561 122.707 32.956 122.509C33.236 123.062 34.0621 123.748 34.9314 124.223C35.7915 124.715 36.6095 125.033 36.8106 125.209C36.3194 124.881 35.8364 124.558 35.4043 124.22C35.8448 124.466 36.3153 124.697 36.7859 124.928C37.1376 125.103 37.4975 125.283 37.8656 125.467C38.4611 125.8 39.0775 126.134 39.6939 126.467L40.2323 126.768L40.6493 126.98C40.9358 127.119 41.235 127.254 41.606 127.375C41.9152 127.473 42.2708 127.565 42.6962 127.685L42.9643 127.589C43.913 127.883 44.1004 128.084 44.0735 128.305C44.0365 128.562 43.6581 128.876 43.273 129.335L43.2214 129.274C43.4086 129.571 43.1475 129.789 42.6691 129.822C42.683 129.701 42.3056 129.629 41.9872 129.548C41.6561 129.47 41.3967 129.378 41.3943 129.248C41.1251 129.462 41.0032 129.565 41.0183 129.691C41.008 129.825 41.1647 129.966 40.835 130.403C40.6718 130.311 40.5168 130.225 40.3791 130.126C40.2788 130.306 40.2186 130.433 40.0749 130.556C40.0012 130.611 39.9103 130.678 39.7694 130.738C39.6031 130.806 39.357 130.883 39.0599 130.974C40.0334 130.458 38.134 130.638 39.2221 129.994C38.5342 129.941 37.8504 130.073 37.4816 130.177C37.0456 130.287 36.624 130.447 36.2152 130.604C35.8063 130.761 35.4356 130.907 35.0505 131.003C34.8562 131.044 34.6664 131.077 34.4312 131.095C34.1697 131.142 33.942 131.09 33.4132 131.308C33.3157 131.425 33.2174 131.562 33.1581 131.669C33.0943 131.783 33.0031 131.946 32.9729 132.057C32.8961 132.272 32.8819 132.488 32.8999 132.552C32.9421 132.725 33.0463 132.463 33.2766 132.184C33.5425 131.862 33.8515 131.692 34.0951 131.582C34.3513 131.468 34.5375 131.422 34.7374 131.352C35.4795 131.135 36.1989 130.959 35.8608 131.123C36.1955 131.214 35.9635 131.438 35.5553 131.67C35.349 131.79 35.109 131.913 34.8437 132.043C34.711 132.108 34.5737 132.181 34.4192 132.266C34.2683 132.364 34.0655 132.497 33.9314 132.775C33.7963 133.074 33.8491 133.382 33.8796 133.538C33.9064 133.682 33.9287 133.834 33.9547 133.998C34.0002 134.28 33.9806 134.526 34.0125 134.833C34.107 135.507 34.524 136.446 35.5615 137.176C35.3676 137.025 35.3067 137.077 35.1046 136.921C35.7453 137.729 36.7494 137.637 37.3591 138.481C38.1303 138.269 38.4321 139.166 38.9473 138.608L37.1794 137.748C38.2313 138.165 39.5507 137.95 40.9191 139.217C40.7238 139.28 40.1594 139.178 39.7748 139.081C40.1304 139.537 40.736 139.468 41.1079 139.933C40.6045 140.508 38.9674 138.898 37.6597 138.766C37.9932 139.338 39.8792 139.45 38.9532 139.842C40.2079 139.398 40.7194 141.011 42.3714 141.025L42.071 141.371C42.3032 141.415 42.8196 141.468 43.1867 141.673L42.2387 141.818C43.5046 141.947 44.0296 143.268 45.1671 143.551C43.0703 142.475 44.9447 142.837 44.2096 142.084C47.0468 142.888 45.1472 143.893 48.164 145.161C47.7395 145.02 46.7985 144.195 47.5044 144.311C48.0236 144.665 48.6777 145.181 48.92 145.551C50.8477 146.393 48.8161 144.99 49.7461 145.146C50.1734 145.952 50.8282 145.451 51.8897 145.659L51.7489 146.083C53.1979 146.69 53.3874 146.389 53.5794 146.218C53.756 146.017 53.9235 145.832 54.9929 146.14C54.6629 146.309 54.3249 146.474 53.9578 146.632C54.3717 146.639 54.7692 146.636 55.1459 146.633L54.8479 147.109C55.489 146.996 55.8494 146.983 56.1861 147.032C56.4646 147.07 56.9416 147.251 57.5948 147.423C57.3397 147.056 57.9144 146.66 58.997 146.772C59.7005 147.123 58.5485 147.153 60.0669 147.252C59.7041 147.499 59.2921 147.815 58.6498 147.317C58.5641 147.451 58.2625 147.55 58.1641 147.688C58.9818 148.102 60.1921 147.986 60.683 148.046C60.4925 148.004 60.2521 147.955 60.1343 147.879C60.8598 147.749 61.5473 147.63 62.2201 147.556C62.4773 147.786 62.2184 147.866 61.9676 147.951C62.3515 147.972 62.626 147.826 63.302 147.958C63.0697 148.277 62.9281 148.627 62.1375 148.624C62.6867 148.599 63.4689 148.693 64.3675 148.714C64.4426 148.809 64.7699 148.971 65.0609 149.101C65.2812 149.224 65.3762 149.342 65.269 149.399C65.5247 149.478 65.6581 149.488 65.6936 149.444C65.7236 149.429 65.7791 149.406 65.8136 149.383C65.9262 149.392 66.055 149.41 66.192 149.434C66.7273 149.529 67.3639 149.789 67.7619 150.322C67.8709 150.318 67.9752 150.323 68.171 150.432C68.4525 150.772 68.6202 151.219 68.9436 151.828C69.607 152.959 70.6481 153.701 71.5887 153.991C71.7883 154.381 71.8946 154.708 72.0743 155.076C73.3181 155.685 71.378 153.659 73.4487 154.666C74.9284 155.333 73.6672 155.463 74.0564 155.916C74.9202 156.056 76.4539 156.185 77.4575 157.378C76.9786 157.239 76.6943 156.962 76.2718 156.779L76.2276 156.648ZM91.5088 164.245C91.1947 164.252 90.4665 164.348 90.2976 164.018C90.8214 163.636 91.0366 163.96 91.5088 164.245ZM109.221 180.021C108.933 180.096 108.578 179.908 108.207 179.594C108.526 179.675 108.863 179.8 109.221 180.021ZM172.697 204.136C172.697 204.136 172.672 204.143 172.659 204.146C172.04 203.779 172.259 203.923 172.697 204.136ZM174.029 204.741C174.181 204.719 174.192 204.66 174.141 204.579C174.02 204.661 173.706 204.571 173.361 204.442C173.429 204.588 173.591 204.721 174.024 204.749L174.029 204.741ZM37.4494 133.97L37.5722 134.21C37.059 133.998 37.256 133.991 37.4494 133.97Z" fill="#58595B"/>
<path d="M106.069 179.362C106.024 179.251 106.04 179.164 106.065 179.081C105.915 179.082 105.865 179.151 106.069 179.362Z" fill="#58595B"/>
<path d="M67.7613 150.225L67.7286 150.207C67.7286 150.207 67.6696 150.217 67.6523 150.229L67.7613 150.225Z" fill="#58595B"/>
<path d="M150.533 202.304C150.301 202.088 150.203 201.938 150.146 201.809C150.075 201.898 150.144 202.044 150.533 202.304Z" fill="#58595B"/>
<path d="M181.613 205.746C181.353 205.751 181.082 205.739 180.79 205.725C181.197 205.781 181.313 205.9 181.501 206.005C181.497 205.896 181.38 205.723 181.616 205.759L181.613 205.746Z" fill="#58595B"/>
<path d="M189.017 206.467C189.084 206.387 189.169 206.349 189.251 206.298C189.29 206.267 189.338 206.24 189.369 206.203L189.234 206.042C189.234 206.042 189.169 206.081 189.152 206.093C188.699 206.386 188.489 206.686 189.026 206.472L189.017 206.467Z" fill="#58595B"/>
<path d="M182.173 207.312C182.205 207.694 182.82 207.609 183.414 207.524C183.38 207.526 183.347 207.529 183.305 207.527C183.476 206.991 182.857 207.18 182.168 207.32L182.173 207.312Z" fill="#58595B"/>
<path d="M183.552 207.505C183.738 207.48 183.918 207.463 184.09 207.462C184.137 207.243 183.877 207.44 183.552 207.505Z" fill="#58595B"/>
<path d="M175.955 205.013C176.24 205.193 176.284 204.597 176.409 204.795C176.903 204.429 174.146 204.783 175.955 205.013Z" fill="#58595B"/>
<path d="M182.641 208.58L182.416 208.101L182.031 208.464L182.641 208.58Z" fill="#58595B"/>
<path d="M177.524 207.378L178.533 207.718C178.537 207.634 178.676 207.616 178.843 207.623C178.189 207.472 177.521 207.249 177.511 207.382L177.524 207.378Z" fill="#58595B"/>
<path d="M178.848 207.615C179.188 207.697 179.507 207.758 179.709 207.721C179.527 207.684 179.137 207.615 178.848 207.615Z" fill="#58595B"/>
<path d="M181.164 208.6L180.869 208.457L180.133 208.281C180.475 208.397 180.821 208.505 181.164 208.6Z" fill="#58595B"/>
<path d="M166.383 204.46C165.998 204.459 165.613 204.458 165.225 204.444C165.085 204.58 165.383 204.736 165.819 204.723C166.106 204.648 166.534 204.63 166.375 204.455L166.383 204.46Z" fill="#58595B"/>
<path d="M169.532 206.35C169.261 206.166 169.265 206.061 169.141 205.863L168.923 206.406L169.52 206.353L169.532 206.35Z" fill="#58595B"/>
<path d="M166.368 205.886C166.247 206.044 164.549 206.133 166.102 206.284C166.255 206.145 167.411 206.127 166.368 205.886Z" fill="#58595B"/>
<path d="M149.773 200.039L150.038 200.177L150.462 199.322L149.773 200.039Z" fill="#58595B"/>
<path d="M135.954 193.258C137.002 194.122 136.518 192.899 137.449 193.762C137.844 193.725 136.678 193.053 137.068 193.045C136.232 192.836 135.945 192.525 135.958 193.25L135.954 193.258Z" fill="#58595B"/>
<path d="M137.076 193.05C137.209 193.081 137.349 193.117 137.512 193.133C137.272 193.063 137.151 193.049 137.076 193.05Z" fill="#58595B"/>
<path d="M51.7477 117.713C52.0409 117.705 52.3041 117.713 52.5419 117.728C52.3696 117.653 52.1928 117.587 51.9951 117.519L51.7395 117.708L51.7477 117.713Z" fill="#58595B"/>
<path d="M53.0332 116.738C53.108 116.93 53.1783 117.129 53.2486 117.329C53.3535 117.142 53.471 116.95 53.6049 116.768C53.4533 116.791 53.1654 116.865 53.0368 116.751L53.0332 116.738Z" fill="#58595B"/>
<path d="M92.5836 165.905L92.6729 165.783C92.7259 165.631 92.7595 165.628 92.6172 165.538C92.6923 165.634 92.6405 165.669 92.6376 165.731C92.6265 165.79 92.6073 165.843 92.5881 165.897L92.5836 165.905Z" fill="#58595B"/>
<path d="M82.1406 160.551L82.3237 160.664L82.25 159.991L82.1406 160.551Z" fill="#58595B"/>
<path d="M72.9138 156.026C73.2581 156.272 73.7534 156.42 74.1022 156.658C73.2627 156.264 73.1696 155.377 72.9138 156.026Z" fill="#58595B"/>
</g>
</g>
<defs>
<clipPath id="clip0_62_233">
<rect width="236.017" height="137.872" fill="white" transform="translate(67.2578) rotate(29.1984)"/>
</clipPath>
</defs>
</svg>
