<svg width="97" height="84" viewBox="0 0 97 84" fill="none" xmlns="http://www.w3.org/2000/svg">
<path d="M93.1178 58.5572C92.8275 59.4996 92.5371 60.4419 92.2455 61.3884C91.8929 62.533 91.1982 63.7095 91.2947 64.8198C91.4043 66.0891 93.0975 65.6984 93.9755 66.3719C96.0533 67.9686 97.0059 70.1398 96.4018 72.6328C95.7696 75.2457 94.04 77.0201 91.5319 77.2083C90.5345 77.2819 90.2988 77.63 90.0038 78.4292C89.0822 80.9175 87.3433 82.5783 84.645 82.9382C82.0201 83.2898 79.9192 82.1997 78.522 80.0333C77.8498 78.9937 77.3331 79.1179 76.3773 79.4877C70.2503 81.8735 65.756 79.0319 65.237 72.4331C65.1588 71.4214 64.7037 71.5469 64.0341 71.5488C62.1689 71.5631 60.3949 71.238 58.9023 69.9855C56.6079 68.0563 55.986 64.8977 57.4232 62.3468C58.9117 59.7011 61.598 58.8193 64.6646 60.0829C65.4041 60.386 65.7313 60.3451 66.2012 59.6972C66.9942 58.6041 68.0292 57.5458 69.383 57.4226C71.3716 57.2381 71.7267 55.9127 72.2279 54.4153C74.2371 48.3827 74.9513 42.3542 72.5527 36.248C70.6023 31.2895 67.0687 28.0044 62.0574 26.2656C59.4518 25.361 56.7892 24.7134 54.0562 24.3231C48.3604 23.5116 43.7691 25.817 39.6141 29.3949C37.798 30.9611 36.2269 32.7532 34.619 34.5208C33.962 35.244 33.9326 35.7132 34.6369 36.5767C37.4473 40.0376 36.6145 43.6471 32.6946 45.5703C32.2668 45.7795 31.9079 45.8372 31.7826 46.5028C30.8934 51.3304 26.6296 53.4355 21.9299 51.3898C19.0552 50.1366 17.0214 48.0663 16.4502 44.9012C16.241 43.7252 15.8691 43.5087 14.7191 43.646C10.8058 44.1099 7.3337 42.9693 4.4029 40.3305C2.27756 38.4136 1.93709 36.6569 3.2488 34.1249C3.59106 33.4598 3.72995 33.2103 3.0303 32.6626C0.788183 30.9091 0.182546 28.9777 0.982735 26.7974C1.82092 24.5225 4.48383 22.4512 6.82654 22.6415C8.16162 22.7517 9.28978 22.4837 10.4927 22.0882C11.2769 21.8294 12.2342 21.5264 12.9532 21.7524C15.6148 22.5901 16.8784 21.0486 18.3745 19.2554C24.5453 11.8524 31.7274 5.73959 41.0375 2.58518C47.9476 0.245783 54.9325 0.741468 61.871 2.36542C68.9456 4.02242 76.04 5.7874 81.9208 10.3847C91.6147 17.9635 95.5779 28.3248 95.9565 40.2831C96.154 46.5305 95.0715 52.6183 93.1231 58.5544L93.1178 58.5572ZM20.6013 27.9038C23.1733 24.8479 25.5901 22.0364 28.3618 19.569C36.2647 12.5402 44.9175 7.59343 56.076 9.51225C59.3447 10.0764 62.5589 10.832 65.7572 11.711C81.7284 16.1001 87.7951 28.3627 88.4986 40.7621C88.8669 47.2747 87.4809 53.4992 85.3821 59.5927C84.6815 61.6221 84.2911 63.5079 86.2714 65.0613C86.6493 65.3592 86.5827 66.3661 87.3922 65.9247C88.244 65.4608 89.5021 65.8927 89.9491 64.4849C92.5723 56.2148 95.1607 47.9427 94.5952 39.0932C93.8613 27.5834 89.8084 17.686 80.1859 10.7668C74.4078 6.61305 67.5689 4.95337 60.7287 3.47043C54.8926 2.20828 49.03 1.70848 43.1846 3.35294C32.3041 6.41323 24.5115 13.7019 17.5869 22.157C17.1831 22.6481 17.2309 22.9817 17.7286 23.3653C19.1559 24.456 19.9048 26.0374 20.6013 27.9038ZM22.1827 28.0057C23.8349 28.5679 25.4264 28.8235 26.3382 30.0344C27.3259 31.344 27.821 30.9164 28.624 29.9061C31.1293 26.7499 34.094 24.0585 37.3002 21.6187C44.2537 16.3344 51.8698 15.8023 60.1614 17.7368C72.1142 20.5292 79.4259 27.7151 81.0654 39.1762C81.9558 45.389 80.7663 51.3641 78.8098 57.2402C77.8641 60.0797 77.9179 60.0919 80.6764 60.831C81.1507 60.9594 81.678 61.0599 82.0581 61.3364C83.0388 62.0504 83.4737 61.8035 83.7986 60.6769C85.1946 55.8726 86.7642 51.1085 87.105 46.0764C87.7799 36.0768 85.4881 27.0497 78.144 19.7962C72.8172 14.5371 65.799 12.9417 58.867 11.3109C55.3714 10.4908 51.768 10.0494 48.1719 10.6199C36.8939 12.4107 29.3737 19.7789 22.1799 28.0005L22.1827 28.0057ZM14.8346 23.2531C13.1042 22.844 11.4373 22.9195 9.87285 23.7262C9.15152 24.0973 8.50494 24.2258 7.67259 24.0801C5.51048 23.7063 3.216 25.0276 2.32527 26.9984C1.42831 28.9895 2.50478 31.5929 4.53681 31.8425C6.60774 32.0953 5.88665 32.7676 5.11412 33.7652C3.14901 36.304 3.42162 38.0221 6.02634 39.9936C8.8872 42.1548 12.0986 42.9051 15.5901 42.1562C17.0228 41.8492 17.4981 42.0178 17.6247 43.6776C17.9993 48.7174 23.0977 51.971 27.6971 50.3013C29.8619 49.5158 30.8176 48.0964 30.3393 45.9385C30.0989 44.8636 30.3617 44.6435 31.3467 44.4376C34.0615 43.8658 35.3843 41.9882 34.8846 39.6555C34.3146 37.0044 31.0918 34.7095 28.6844 35.4912C27.1636 35.9837 26.9629 35.7004 26.9216 34.1953C26.8435 31.1555 23.7047 28.8466 20.7006 29.5951C19.3956 29.9193 19.4804 29.1837 19.3038 28.4341C18.7117 25.9267 17.2633 24.1564 14.8346 23.2531ZM95.0159 72.7594C95.5779 70.8202 95.2066 69.1204 93.6085 67.8221C91.766 66.3245 89.6592 66.26 87.6969 67.3515C86.5425 67.9923 86.2089 67.7522 85.6765 66.7335C83.9717 63.4803 81.3277 61.6074 77.5437 61.81C76.4535 61.8682 76.1147 61.228 75.6009 60.5516C73.645 57.9695 70.1989 57.4348 68.0844 59.7106C66.5725 61.3394 65.7507 62.6982 63.1795 61.0203C61.3833 59.847 58.9014 61.6331 58.1839 63.9186C57.4578 66.2324 58.7615 68.8748 61.067 69.7755C62.6252 70.384 64.2408 70.2883 65.8533 70.1164C66.8339 70.0111 67.2251 70.3664 66.8585 71.3118C65.7842 74.094 67.112 76.0398 69.0671 77.7758C71.0892 79.5679 73.3062 79.3032 75.5776 78.3733C76.2264 78.1082 76.8888 77.8562 77.5093 77.5248C78.2356 77.1374 78.6701 77.2802 78.9772 78.0523C79.9619 80.5655 81.7776 81.891 84.5217 81.5983C86.8209 81.3545 88.5007 79.5692 89.0539 76.7239C89.2371 75.784 89.4952 75.5933 90.4088 75.7198C92.674 76.0324 94.325 74.9158 95.0159 72.7594ZM76.7336 59.5499C77.6962 56.1088 78.8017 52.9377 79.4739 49.6197C82.47 34.8616 75.4204 23.359 60.9536 19.336C52.869 17.0888 45.2465 17.2824 38.2463 22.5744C34.6843 25.2633 31.5343 28.3405 28.7235 31.7834C28.1543 32.4804 27.5165 33.6302 28.747 33.9074C31.0476 34.4214 33.0824 34.6763 35.1313 32.1677C40.7217 25.3254 47.5833 21.4609 57.1276 23.4138C69.3951 25.9179 76.0449 33.9007 75.2645 46.3566C75.0639 49.5675 74.1235 52.5769 73.1942 55.6075C73.016 56.1859 72.3771 56.9367 73.4927 57.3424C74.6891 57.773 75.6275 58.6245 76.7295 59.5486L76.7336 59.5499Z" fill="#343435"/>
</svg>
